<svg width="28" height="28" viewBox="0 0 28 28" fill="none" xmlns="http://www.w3.org/2000/svg">
<path d="M7 0C7.27083 0 7.50521 0.0989583 7.70312 0.296875C7.90104 0.494792 8 0.729167 8 1V14.9219L16.375 8.21875C16.5521 8.07292 16.7604 8 17 8C17.2708 8 17.5052 8.09896 17.7031 8.29688C17.901 8.49479 18 8.72917 18 9V14.9219L26.375 8.21875C26.5521 8.07292 26.7604 8 27 8C27.2708 8 27.5052 8.09896 27.7031 8.29688C27.901 8.49479 28 8.72917 28 9V27C28 27.2708 27.901 27.5052 27.7031 27.7031C27.5052 27.901 27.2708 28 27 28H1C0.729167 28 0.494792 27.901 0.296875 27.7031C0.0989583 27.5052 0 27.2708 0 27V1C0 0.729167 0.0989583 0.494792 0.296875 0.296875C0.494792 0.0989583 0.729167 0 1 0H7Z" fill="white"/>
</svg>
