<svg width="30" height="30" viewBox="0 0 30 30" fill="none" xmlns="http://www.w3.org/2000/svg">
<path fill-rule="evenodd" clip-rule="evenodd" d="M1.49636 4.30263C1.96767 3.52076 4.56598 0.682467 6.41755 0.768151C6.97149 0.815584 7.46116 1.14914 7.85901 1.53778H7.86054C8.77255 2.43135 11.3892 5.80364 11.5361 6.51359C11.8988 8.25482 9.82228 9.25855 10.4573 11.0136C12.0763 14.9749 14.8659 17.7643 18.8292 19.3815C20.5828 20.0181 21.5866 17.9433 23.328 18.3044C24.038 18.4528 27.4121 21.0677 28.3043 21.9812V21.9812C28.6914 22.3774 29.0281 22.8686 29.074 23.4225C29.1428 25.3733 26.1283 28.0066 25.5407 28.3432C24.1543 29.3362 22.3456 29.3179 20.1406 28.2927C13.9875 25.7329 4.15435 16.0858 1.54686 9.70075C0.549158 7.50814 0.481829 5.68735 1.49636 4.30263Z" stroke="#200E32" stroke-width="1.5" stroke-linecap="round" stroke-linejoin="round"/>
<path d="M18.7431 1.13865C24.2588 1.75102 28.6139 6.10162 29.2337 11.6159" stroke="#200E32" stroke-width="1.5" stroke-linecap="round" stroke-linejoin="round"/>
<path d="M18.7431 6.41761C21.3802 6.93164 23.4408 8.99222 23.9548 11.6294" stroke="#200E32" stroke-width="1.5" stroke-linecap="round" stroke-linejoin="round"/>
</svg>
