<svg width="35" height="32" viewBox="0 0 35 32" fill="none" xmlns="http://www.w3.org/2000/svg">
<path d="M17.5 12.4495C15.7795 12.4495 14.3784 13.8506 14.3784 15.571C14.3784 17.2915 15.7795 18.6926 17.5 18.6926C19.2205 18.6926 20.6216 17.2915 20.6216 15.571C20.6216 13.8506 19.2205 12.4495 17.5 12.4495ZM8.76094 21.7748L8.07188 21.6041C2.94437 20.3048 0 18.1063 0 15.5656C0 13.0248 2.94547 10.8263 8.07188 9.52696L8.76094 9.35633L8.95453 10.0399C9.47469 11.8304 10.1397 13.5756 10.943 15.2582L11.0906 15.5656L10.943 15.8784C10.138 17.5603 9.47295 19.3056 8.95453 21.0966L8.76094 21.7748ZM7.75359 11.1216C3.85656 12.2154 1.46453 13.8954 1.46453 15.5656C1.46453 17.2357 3.85766 18.9091 7.75359 20.0095C8.23118 18.492 8.80773 17.0075 9.47953 15.5656C8.80679 14.124 8.23022 12.6394 7.75359 11.1216ZM26.2391 21.7748L26.0455 21.0912C25.5262 19.3022 24.8612 17.5587 24.057 15.8784L23.9094 15.5656L24.057 15.2527C24.862 13.5709 25.527 11.8255 26.0455 10.0345L26.2391 9.35633L26.9281 9.52696C32.0556 10.8263 35 13.0248 35 15.5656C35 18.1063 32.0545 20.3048 26.9281 21.6041L26.2391 21.7748ZM25.5205 15.5656C26.1945 17.0066 26.7711 18.4912 27.2464 20.0095C31.1489 18.9102 33.5355 17.2357 33.5355 15.5656C33.5355 13.8954 31.1423 12.222 27.2464 11.1216C26.7677 12.6387 26.1912 14.1231 25.5205 15.5656ZM7.74156 11.1162L7.54797 10.4326C6.10641 5.35102 6.545 1.70555 8.75 0.434615C10.9145 -0.813354 14.3839 0.662115 18.0239 4.39946L18.5194 4.90696L18.0239 5.41446C16.7313 6.75936 15.5501 8.20715 14.4922 9.74352L14.2931 10.0224L13.9508 10.0509C12.0897 10.1978 10.2437 10.4951 8.43062 10.9401L7.74156 11.1162ZM10.5098 1.44961C10.1172 1.44961 9.76938 1.52946 9.47844 1.70008C8.03141 2.5379 7.77547 5.4429 8.77188 9.3618C10.3266 9.01403 11.9024 8.7685 13.4892 8.6268C14.4028 7.32566 15.4017 6.08663 16.4795 4.9179C14.2067 2.70196 12.0531 1.44852 10.5098 1.44852V1.44961ZM24.4956 31.1395C24.4902 31.1395 24.4902 31.1395 24.4956 31.1395C22.4164 31.1395 19.7444 29.5787 16.9761 26.7306L16.4806 26.2231L16.9761 25.7156C18.2687 24.3707 19.4499 22.9229 20.5078 21.3865L20.7014 21.1076L21.0437 21.0737C22.9072 20.9317 24.7555 20.6343 26.5694 20.1845L27.2584 20.0138L27.452 20.6974C28.8936 25.779 28.455 29.419 26.25 30.6888C25.7169 30.9952 25.1104 31.1506 24.4956 31.1384V31.1395ZM18.5194 26.2121C20.7922 28.4281 22.9458 29.6815 24.4891 29.6815H24.4945C24.8817 29.6815 25.2295 29.5962 25.5205 29.431C26.9675 28.5932 27.23 25.6882 26.227 21.7693C24.6726 22.1174 23.0966 22.3612 21.5097 22.4988C20.5962 23.8017 19.5972 25.0426 18.5194 26.2132V26.2121ZM27.2584 11.1162L26.5694 10.9401C24.7542 10.4966 22.9064 10.1993 21.0437 10.0509L20.7014 10.0224L20.5078 9.74352C19.4499 8.20715 18.2687 6.75936 16.9761 5.41446L16.4806 4.90696L16.9761 4.39946C20.6161 0.662115 24.0855 -0.813354 26.25 0.434615C28.455 1.70446 28.8936 5.35102 27.452 10.4326L27.2584 11.1162ZM21.5108 8.6268C23.0976 8.76812 24.6735 9.01365 26.2281 9.3618C27.2311 5.4429 26.9686 2.5368 25.5216 1.70008C24.08 0.868834 21.3686 2.14415 18.5205 4.91899C19.5953 6.09024 20.5942 7.32907 21.5108 8.6279V8.6268ZM10.5098 31.1395C9.89406 31.1504 9.28484 30.9973 8.75 30.6899C6.545 29.4201 6.10641 25.779 7.54797 20.6985L7.74156 20.0149L8.43062 20.1856C10.1172 20.6132 11.9744 20.9085 13.9508 21.0748L14.2931 21.1087L14.4867 21.3876C15.5447 22.924 16.7258 24.3717 18.0184 25.7166L18.5139 26.2241L18.0184 26.7316C15.2556 29.5798 12.5836 31.1406 10.5098 31.1406V31.1395ZM8.77297 21.7693C7.77 25.6882 8.0325 28.5943 9.47953 29.431C10.9211 30.2513 13.627 28.987 16.4806 26.2121C15.4028 25.0415 14.4038 23.8006 13.4903 22.4977C11.9033 22.3605 10.3273 22.1168 8.77297 21.7682V21.7693ZM17.5 22.6859C16.298 22.6859 15.0675 22.6345 13.8316 22.5316L13.4892 22.5032L13.2902 22.2188C12.592 21.2157 11.9363 20.1838 11.3247 19.1257C10.7118 18.0676 10.1436 16.9842 9.62172 15.8784L9.47406 15.5656L9.62172 15.2527C10.6674 13.0416 11.8944 10.9209 13.2902 8.91227L13.4892 8.6279L13.8316 8.59946C16.2729 8.39384 18.7271 8.39384 21.1684 8.59946L21.5108 8.6279L21.7098 8.91227C23.1074 10.9197 24.3345 13.0406 25.3783 15.2527L25.5259 15.5656L25.3783 15.8784C24.3366 18.0916 23.1094 20.2127 21.7098 22.2188L21.5108 22.5032L21.1684 22.5316C19.9483 22.6338 18.7244 22.6852 17.5 22.6859ZM14.2986 21.1021C16.4522 21.2673 18.5478 21.2673 20.7069 21.1021C21.911 19.3389 22.9811 17.4878 23.9083 15.5645C22.9851 13.6379 21.9128 11.7864 20.7014 10.0268C18.5703 9.86164 16.4297 9.86164 14.2986 10.0268C13.0863 11.7859 12.014 13.6375 11.0917 15.5645C12.0191 17.4888 13.0912 19.34 14.2986 21.1021Z" fill="#F3F3F3"/>
</svg>
