<svg width="121" height="56" viewBox="0 0 121 56" fill="none" xmlns="http://www.w3.org/2000/svg">
<path fill-rule="evenodd" clip-rule="evenodd" d="M35.186 0.718317C34.9686 0.816966 34.768 0.972172 34.741 1.06359C34.7137 1.15467 34.6359 1.33849 34.5681 1.47166C34.4488 1.70678 34.4683 1.73703 35.1989 2.45651C39.1957 6.3926 39.7761 7.06144 40.5518 8.62404L41.0521 9.63157L41.0765 10.7065C41.1071 12.0465 41.4135 13.2737 41.9 14.005C42.8213 15.3904 42.9606 16.5817 42.344 17.8056C41.9388 18.6096 41.9171 18.6941 41.8417 19.7497C41.7761 20.6697 41.7175 20.9538 41.4879 21.4622C41.1473 22.2162 41.1147 22.3658 41.0182 23.618L40.9405 24.6246L40.2408 25.2842C39.4463 26.0336 39.3416 26.2108 38.9137 27.5281C38.4354 29.0016 38.0099 29.5685 37.2239 29.7796C36.6202 29.9421 36.4957 30.1548 36.637 30.7845C36.7022 31.0749 36.7951 31.7036 36.8428 32.1814C36.9911 33.6545 37.5425 34.5568 38.2523 34.4881L38.5484 34.4595L38.5214 33.5802C38.4796 32.2169 38.8683 31.1107 39.8877 29.6925C40.1987 29.2597 40.7231 28.51 41.0528 28.0263C41.8591 26.8432 42.3588 26.1266 42.8694 25.422C43.4244 24.6561 44.5275 22.476 44.9169 21.376C45.2841 20.3392 45.3398 20.2991 46.2262 20.4316C46.5931 20.4866 47.0978 20.5415 47.3474 20.5533C48.6759 20.6171 47.7002 21.8496 46.2509 21.9387C45.351 21.9942 45.2304 22.1057 45.1507 22.958C45.1204 23.2839 44.9679 23.9333 44.8121 24.4013C44.4735 25.4193 44.4488 25.956 44.7252 26.3065C45.0773 26.7531 45.3615 26.5827 45.5559 25.8083C45.768 24.9629 47.1762 23.7551 49.3969 22.5141C49.9579 22.2007 50.7069 21.7821 51.0613 21.5835C52.6562 20.6911 52.9385 19.9312 52.0162 19.015C51.2184 18.2229 49.3169 17.4008 47.2671 16.9625C45.9587 16.6827 46.051 16.8832 45.9838 14.1665C45.9241 11.7581 45.8049 10.8699 45.463 10.2915C45.1036 9.68287 44.9732 9.15378 45.1158 8.87953C46.0058 7.16568 46.1709 6.68526 46.607 4.53997C46.7335 3.91717 46.9232 3.21282 47.0286 2.97507C47.2559 2.46243 47.1557 2.2694 46.5803 2.11091C45.9192 1.92874 45.6876 2.1165 45.6857 2.83663C45.6843 3.38578 45.6468 3.51008 45.3345 4.00628C45.1425 4.31176 44.9225 4.79087 44.8457 5.0707C44.4949 6.35018 44.1998 6.54715 43.5871 5.91053L43.2146 5.52383L42.0821 5.55178L40.95 5.57973L40.1203 4.8517C39.6637 4.45152 39.0425 3.95498 38.7398 3.74881C37.5197 2.91851 36.5576 1.83634 36.5559 1.29278C36.5536 0.644986 35.9275 0.382582 35.186 0.718317ZM1.18828 36.3463C0.39313 36.4009 0.357556 36.4131 0.295631 36.6462C0.166839 37.129 0.243258 50.7757 0.375344 50.9079C0.52851 51.0611 2.19621 51.1269 2.54471 50.9934L2.79472 50.8977L2.82403 45.7331C2.85236 40.7895 2.88398 40.194 3.11587 40.2709C3.24961 40.3156 3.6037 41.3189 3.7763 42.1423C3.85107 42.4987 3.99568 43.0818 4.09746 43.4382C4.39029 44.4619 4.90446 46.5111 5.39789 48.6215C5.6479 49.6909 5.87913 50.6353 5.91207 50.7201C6.00232 50.9552 6.19469 51.0019 7.27707 51.0519C8.61472 51.1141 8.77645 51.0447 8.91447 50.3505C9.04886 49.6741 9.72312 46.9774 10.203 45.1968C10.4089 44.4332 10.7314 43.1626 10.9198 42.3738C11.234 41.0562 11.461 40.4297 11.624 40.4297C11.8497 40.4297 11.8912 41.2495 11.8912 45.7058C11.8912 51.0309 11.881 50.9414 12.5012 51.0342C13.2341 51.144 14.2127 51.0444 14.3586 50.8451C14.5638 50.5646 14.549 36.8564 14.3432 36.5627C14.2018 36.3615 14.1584 36.3572 12.2637 36.3572C10.0878 36.3572 10.1003 36.3532 9.98762 37.0264C9.9224 37.416 9.58741 38.6583 9.15723 40.1058C8.76525 41.4235 8.20167 43.6026 8.03928 44.4277C7.82978 45.4924 7.43946 46.1119 7.15651 45.8295C7.10875 45.7818 6.92692 45.1619 6.75169 44.4517C6.57678 43.7414 6.19831 42.3064 5.91108 41.263C5.62385 40.2193 5.24835 38.8237 5.07707 38.1621C4.69102 36.6722 4.62316 36.493 4.41137 36.4026C4.18903 36.3079 2.23871 36.2737 1.18828 36.3463ZM75.5907 36.421C75.2083 36.4417 74.8598 36.494 74.8166 36.5371C74.7208 36.6331 74.6915 50.485 74.7867 50.7626C74.8898 51.0638 75.0732 51.0746 80.0348 51.0746C85.4632 51.0746 84.977 51.1838 85.0277 49.9517C85.0847 48.5617 85.5683 48.6876 80.1172 48.6738C78.1659 48.6689 77.8075 48.6465 77.6833 48.5226C77.5539 48.3933 77.5377 47.7255 77.5377 42.5698C77.5377 38.0161 77.512 36.7278 77.4198 36.6015C77.2854 36.4184 76.7047 36.3608 75.5907 36.421ZM90.7414 40.2443C89.376 40.4442 88.2149 41.1972 87.4596 42.3725C86.3466 44.1041 86.3285 47.325 87.4221 49.1411C89.0618 51.8648 93.499 52.0861 95.5554 49.5472C96.4039 48.4996 96.3334 48.2894 95.0583 48.0655C93.7441 47.8347 93.6255 47.8649 93.2994 48.5137C92.6113 49.8839 90.0974 49.4571 89.5022 47.8689C88.9808 46.4779 88.9439 46.4927 92.8926 46.4927C96.6981 46.4927 96.4174 46.5716 96.3812 45.5128C96.26 41.9779 93.9084 39.781 90.7414 40.2443ZM102.109 40.237C100.446 40.4725 99.6573 40.9901 98.9093 42.3363C98.5627 42.9594 98.621 43.0653 99.4086 43.2442C100.571 43.5082 100.938 43.4602 101.245 43.0035C102.148 41.6612 104.983 42.0492 104.983 43.5155C104.983 44.229 105.047 44.1981 102.28 44.8206C99.2824 45.4947 98.4283 46.1675 98.3256 47.9356C98.1619 50.7619 101.466 52.3475 104.009 50.6626C104.944 50.0424 105.33 50.0441 105.487 50.6682C105.567 50.9845 105.875 51.0746 106.879 51.0746C107.985 51.0746 108.046 51.019 107.811 50.2147C107.668 49.7264 107.633 49.1099 107.576 46.1224C107.494 41.7638 107.438 41.553 106.172 40.7724C105.481 40.3469 103.332 40.0638 102.109 40.237ZM115.587 40.2903C114.863 40.4475 114.611 40.5813 113.948 41.1614C113.652 41.4208 113.379 41.6333 113.341 41.6333C113.177 41.6333 113.05 41.3853 113.05 41.0657C113.05 40.4837 112.908 40.4202 111.676 40.4501L110.601 40.4761L110.524 40.8464C110.398 41.4511 110.494 54.8335 110.625 54.9916C110.775 55.1725 112.26 55.2849 112.752 55.1524C113.247 55.0193 113.262 54.9347 113.183 52.6869C113.085 49.8984 113.133 49.803 114.262 50.5422C116.864 52.2449 119.849 50.8878 120.664 47.6311C121.734 43.3547 119.089 39.5301 115.587 40.2903ZM16.5893 40.4916C16.4793 40.6011 16.5221 40.8349 16.7559 41.4018C16.8818 41.7072 17.1762 42.4777 17.4104 43.114C17.6446 43.7506 18.1236 45.0001 18.4747 45.8909C20.6078 51.3048 20.6358 51.4327 19.8894 52.4116C19.3828 53.0765 19.1015 53.2087 18.0613 53.2705C16.9717 53.3353 16.9078 53.4672 17.2777 54.889C17.419 55.4329 18.4961 55.5931 19.954 55.2869C21.6385 54.9331 22.157 54.2781 23.2864 51.0746C23.5285 50.3874 24.0019 49.096 24.3379 48.2052C24.6742 47.3141 25.2694 45.7104 25.661 44.6414C26.0527 43.5724 26.5151 42.3106 26.689 41.8375C27.2045 40.434 27.2016 40.4297 25.7394 40.4297C24.4999 40.4297 24.4713 40.4472 24.1857 41.3787C24.0572 41.7987 23.6982 42.892 23.3882 43.8085C23.0786 44.7246 22.7212 45.8219 22.5947 46.2467C22.0796 47.9754 21.7133 48.0408 21.2235 46.4927C20.536 44.3205 19.2738 40.7326 19.1473 40.5919C18.9988 40.4261 16.7434 40.3377 16.5893 40.4916ZM92.6601 42.5073C93.3692 42.9759 93.7638 43.6441 93.7638 44.377C93.7638 44.8288 93.6163 44.862 91.5362 44.8808C89.1978 44.9018 89.1323 44.867 89.4561 43.7776C89.8573 42.429 91.5349 41.7638 92.6601 42.5073ZM116.666 42.5273C118.416 43.2449 118.774 47.2737 117.207 48.613C115.917 49.7156 113.828 48.9642 113.334 47.2204C112.461 44.1386 114.295 41.5557 116.666 42.5273ZM104.837 46.129C105.2 46.4911 104.95 48.0856 104.448 48.6061C103.253 49.8474 101.212 49.5738 100.94 48.1362C100.763 47.2026 101.25 46.7788 103.002 46.3424C104.609 45.9422 104.646 45.938 104.837 46.129Z" fill="white"/>
<path fill-rule="evenodd" clip-rule="evenodd" d="M38.1776 0.164425C37.7188 0.202898 36.4671 0.283789 35.3963 0.344294C30.1392 0.641227 29.514 0.762236 29.5097 1.48073C29.5071 1.97364 30.8408 2.04632 33.218 1.68263C33.7029 1.60832 34.2025 1.55932 34.328 1.57346C34.5168 1.59516 34.5744 1.54321 34.6597 1.27554C34.9565 0.343638 36.5551 0.36271 36.5551 1.29823C36.5551 1.55833 36.8255 1.97858 36.8304 1.72604C36.8367 1.39721 38.9715 1.28672 42.1208 1.45278C44.9529 1.60174 45.2529 1.64745 45.5112 1.97101C45.6996 2.20679 45.7421 2.2206 45.9816 2.12228C46.2856 1.99732 46.7688 2.10189 47.0465 2.35246C47.2105 2.50076 47.2322 2.4978 47.4457 2.29787C47.7053 2.05421 47.6894 2.05289 49.5637 2.48826C61.7785 5.32606 72.6806 16.1311 74.6698 27.3705C74.7726 27.9515 74.8731 28.4533 74.8928 28.4852C74.9126 28.5171 75.017 29.2915 75.1247 30.2056C75.2324 31.1198 75.3388 31.9511 75.3606 32.0527C75.3826 32.1546 75.4452 32.7962 75.4999 33.4785C75.6251 35.0437 75.7157 35.242 76.3069 35.2446C77.0675 35.2482 77.0635 33.878 76.2878 28.0788C74.5984 15.454 63.0193 3.8779 49.3825 1.17985C48.5307 1.01149 47.7771 0.80893 47.589 0.698115C47.3064 0.531727 47.0363 0.497858 45.5026 0.435051C44.5339 0.395592 43.3655 0.321276 42.9064 0.270308C41.7278 0.139105 39.1651 0.081889 38.1776 0.164425ZM35.4424 36.3251C35.366 36.358 35.2727 36.4304 35.2352 36.4866C35.0932 36.699 35.1522 50.6523 35.2961 50.8486C35.4908 51.1139 43.384 51.1205 44.3369 50.8561C47.7988 49.895 48.6565 45.1845 45.6416 43.6906C44.9384 43.342 44.9133 43.1027 45.5267 42.5864C47.7879 40.6831 46.6268 37.0016 43.5889 36.4425C43.0282 36.3396 35.6578 36.2334 35.4424 36.3251ZM50.4168 36.3883C50.1408 36.5948 50.1362 38.4313 50.4115 38.6322C50.7409 38.8726 52.5496 38.8147 52.7298 38.5579C52.9235 38.2817 52.9337 36.7516 52.7436 36.4922C52.5657 36.2492 50.7133 36.1667 50.4168 36.3883ZM43.0872 38.9486C44.2977 39.5592 44.2997 41.1136 43.0905 41.8643L42.6432 42.1421L40.4886 42.1737C37.7409 42.2142 37.9461 42.3549 37.9461 40.4296C37.9461 38.5115 37.7389 38.6539 40.4774 38.6894C42.5598 38.7164 42.6429 38.7246 43.0872 38.9486ZM59.1789 40.2119C55.9012 40.8581 54.4126 44.7632 55.998 48.5583C56.999 50.9544 59.8166 51.7384 62.0535 50.2435C63.0881 49.5523 63.2275 49.647 63.123 50.9712C62.9686 52.9291 62.5802 53.2957 60.6625 53.2941C59.564 53.2931 59.3347 53.2158 59.0136 52.7393C58.7135 52.2944 58.5448 52.23 57.3244 52.0955C55.8172 51.9298 55.7921 51.9367 55.8063 52.5157C55.8521 54.3874 57.5162 55.4196 60.4942 55.4232C63.4281 55.4269 64.8174 54.6942 65.4584 52.8044L65.7157 52.0462L65.7424 46.2867L65.7687 40.5273L65.5105 40.4553C65.2058 40.3704 63.485 40.3579 63.403 40.4401C63.3717 40.471 63.3151 40.6795 63.2772 40.9028C63.1797 41.475 62.9534 41.4828 62.1609 40.9426C61.289 40.3477 60.0409 40.0419 59.1789 40.2119ZM50.3361 40.5335C50.1553 40.791 50.1049 49.9953 50.2804 50.6269L50.375 50.9663L51.0667 51.0311C51.877 51.107 52.5368 51.0278 52.7337 50.8308C52.8994 50.6654 52.9469 40.7805 52.7831 40.5223C52.6138 40.2547 50.5248 40.2642 50.3361 40.5335ZM61.3325 42.3776C61.8575 42.5233 62.4392 43.0172 62.7489 43.5801C63.0997 44.2184 63.1668 46.3699 62.8632 47.2383C62.1648 49.234 59.1763 49.3692 58.4526 47.4379C57.3356 44.4574 58.9029 41.7041 61.3325 42.3776ZM43.1185 44.8001C44.8452 45.4337 45.106 47.5497 43.5553 48.3439L43.0128 48.6214L40.6329 48.6526C38.5149 48.6803 38.2363 48.6668 38.0996 48.5303C37.8726 48.3038 37.8703 45.1144 38.0969 44.7915L38.2478 44.5765L40.4844 44.6153C42.2143 44.6455 42.8112 44.6873 43.1185 44.8001Z" fill="white"/>
<path fill-rule="evenodd" clip-rule="evenodd" d="M34.3818 1.91447C34.3534 1.96051 35.4137 3.08577 36.7379 4.41489C38.9768 6.66179 39.6744 7.47202 39.9725 8.17144C40.0377 8.32435 40.263 8.73604 40.4738 9.08658L40.8566 9.72385L40.8767 10.7998C40.909 12.5347 41.1096 13.3633 41.7542 14.4297C42.129 15.0496 42.4894 16.1015 42.4894 16.5757C42.4894 16.8493 42.3244 17.234 41.8955 17.9614C41.6692 18.3454 41.6195 18.5713 41.5117 19.7055C41.4195 20.6742 41.3368 21.1069 41.1893 21.3934C41.0443 21.6745 40.957 22.1201 40.8645 23.0474C40.7176 24.5212 40.6972 24.5712 40.0394 25.067C39.2874 25.6339 39.0074 26.1617 38.4652 28.0374C38.2485 28.7881 37.7182 29.3602 37.063 29.5503C36.337 29.7607 36.2082 29.9863 36.3545 30.79C36.4161 31.128 36.5086 31.8005 36.5603 32.2842C36.7392 33.9576 37.367 34.8747 38.3344 34.8757C38.8012 34.876 38.8256 34.8089 38.8361 33.4874C38.8489 31.883 39.1108 31.1744 40.3072 29.5072C40.6906 28.9729 41.3691 27.9939 41.8148 27.332C42.2601 26.6701 42.8151 25.8789 43.0477 25.5734C43.2806 25.2679 43.6096 24.7681 43.7793 24.4626C44.2345 23.6439 44.6426 23.028 44.7302 23.028C44.9348 23.028 44.6785 24.2137 44.3218 24.9184C43.8613 25.8286 44.303 26.7677 45.1657 26.7118L45.5955 26.6842L45.722 26.1522C45.9038 25.388 47.2576 23.9957 48.4329 23.3637C48.872 23.1279 49.6019 22.707 50.0558 22.4285C50.5094 22.15 51.1303 21.7853 51.4353 21.6186C54.2769 20.0652 52.4067 17.8091 47.3591 16.7016C46.1463 16.4356 46.2013 16.5622 46.1996 14.0341C46.198 11.7327 46.0807 10.9024 45.6268 9.98C45.2507 9.21548 45.2599 9.04975 45.7204 8.26417C46.1166 7.58777 46.6041 6.16328 46.7052 5.38527C46.7932 4.70755 47.1338 3.30082 47.28 3.01112C47.393 2.78686 47.3907 2.75661 47.2619 2.75661C47.0534 2.75661 46.8647 3.27221 46.6041 4.55432C46.1713 6.68382 46.0046 7.16785 45.1159 8.87941C44.9733 9.15366 45.1037 9.68274 45.4631 10.2914C45.805 10.8698 45.9243 11.758 45.9839 14.1663C46.0511 16.8831 45.9588 16.6825 47.2672 16.9624C49.317 17.4007 51.2186 18.2228 52.0163 19.0149C52.9386 19.931 52.6563 20.691 51.0614 21.5834C50.707 21.782 49.958 22.2006 49.397 22.514C47.1763 23.755 45.7681 24.9628 45.556 25.8082C45.3617 26.5826 45.0774 26.7529 44.7253 26.3064C44.4489 25.9559 44.4736 25.4192 44.8122 24.4012C44.968 23.9332 45.1205 23.2838 45.1509 22.9579C45.2306 22.1056 45.3511 21.9941 46.251 21.9386C47.7003 21.8494 48.676 20.617 47.3476 20.5532C47.0979 20.5414 46.5933 20.4864 46.2263 20.4315C45.3399 20.299 45.2843 20.3391 44.917 21.3759C44.5276 22.4759 43.4245 24.656 42.8695 25.4218C42.3589 26.1265 41.8593 26.843 41.0529 28.0262C40.7232 28.5099 40.1988 29.2596 39.8878 29.6924C38.8684 31.1106 38.4797 32.2168 38.5215 33.5801L38.5485 34.4594L38.2524 34.488C37.5426 34.5567 36.9912 33.6544 36.843 32.1813C36.7952 31.7035 36.7023 31.0748 36.6371 30.7844C36.4958 30.1547 36.6203 29.9419 37.2241 29.7795C38.01 29.5684 38.4356 29.0015 38.9138 27.528C39.3417 26.2107 39.4465 26.0335 40.241 25.2841L40.9406 24.6244L41.0183 23.6179C41.1148 22.3657 41.1474 22.2161 41.488 21.4621C41.7176 20.9537 41.7762 20.6696 41.8418 19.7495C41.9172 18.694 41.939 18.6095 42.3441 17.8055C42.9607 16.5816 42.8214 15.3902 41.9001 14.0049C41.4129 13.2722 41.1072 12.0464 41.0766 10.7018L41.0522 9.62224L40.4672 8.46246C39.8645 7.26683 39.1662 6.35959 38.0294 5.29649C37.7541 5.03901 36.866 4.1538 36.0564 3.32976C34.6031 1.85068 34.4839 1.74973 34.3818 1.91447ZM37.0343 2.2752C37.0979 2.42745 38.2089 3.38763 38.7399 3.74869C39.0426 3.95486 39.6639 4.4514 40.1204 4.85158L40.9501 5.57961L42.0823 5.55166L43.2147 5.52371L43.5872 5.91041C44.1999 6.54702 44.495 6.35006 44.8458 5.07058C44.9226 4.79075 45.1373 4.31164 45.3235 4.00616C45.6749 3.42906 45.7998 2.93648 45.698 2.5307C45.5955 2.12427 45.4565 2.27093 45.4565 2.78489C45.4565 3.17784 45.3979 3.36691 45.1627 3.73356C44.8017 4.29652 44.5293 4.98541 44.5293 5.33496C44.5293 5.94362 44.1083 6.01432 43.4785 5.51154C43.2354 5.31786 43.136 5.30372 42.1491 5.32411L41.0825 5.34647L40.3721 4.70426C39.9811 4.3511 39.3681 3.8572 39.01 3.60663C38.6516 3.35606 38.1243 2.93746 37.838 2.67637C37.3901 2.26764 36.9365 2.0414 37.0343 2.2752ZM47.3663 20.9064C47.4708 20.9932 47.4688 21.054 47.3532 21.2773C47.1911 21.59 47.0623 21.6268 46.0155 21.6604C45.1199 21.6893 45.0609 21.6364 45.3132 21.033L45.4585 20.686L46.3498 20.7446C46.8403 20.7765 47.2975 20.8495 47.3663 20.9064ZM1.54381 36.069C0.722313 36.1072 0.279282 36.1667 0.176183 36.2525C-0.0586728 36.4475 -0.0586726 50.9837 0.175854 51.1781C0.405439 51.3685 2.74774 51.3589 2.92923 51.1669C3.08437 51.0028 3.17265 48.8049 3.17627 45.0115C3.17924 41.8479 3.35645 41.5296 3.86141 43.7801C4.28105 45.6491 5.50045 50.6385 5.60421 50.9111C5.73564 51.2563 6.13288 51.3514 7.44089 51.3504C8.70213 51.3491 8.92315 51.2682 9.08587 50.7483C9.23673 50.2659 10.6445 44.518 10.7793 43.8337C10.9114 43.1629 11.1989 42.3418 11.3152 42.303C11.494 42.2434 11.5181 42.7752 11.5194 46.8329C11.5207 51.402 11.4931 51.1939 12.1163 51.3106C12.6505 51.4106 14.4655 51.3191 14.5992 51.1856C14.7241 51.0607 14.8775 36.969 14.7596 36.4495C14.6651 36.0328 14.2188 35.9605 12.1021 36.0187C9.58029 36.0884 9.85236 35.8296 9.11848 38.8591C8.66557 40.7289 8.37966 41.839 7.84374 43.8083C7.58187 44.7692 7.41125 45.0194 7.20571 44.7426C7.06605 44.5548 7.03113 44.4397 6.41451 42.1422C6.1958 41.3277 5.89902 40.2238 5.7554 39.6891C5.61146 39.1548 5.41152 38.3425 5.31105 37.8842C4.87033 35.8714 4.95136 35.9102 1.54381 36.069ZM74.7562 36.2361C74.382 36.3696 74.3853 36.3018 74.3853 43.7797C74.3853 50.8585 74.3885 50.9851 74.5707 51.1669C74.8151 51.4112 84.7693 51.4622 85.1 51.2208C85.2855 51.0857 85.4235 49.3442 85.2904 48.8158C85.187 48.4041 84.957 48.3794 81.3604 48.3972C78.5751 48.411 77.9664 48.3916 77.8999 48.2863C77.8551 48.216 77.8182 45.5048 77.8172 42.2612C77.8159 36.5258 77.8109 36.3607 77.6367 36.2676C77.4545 36.1703 75.0151 36.1437 74.7562 36.2361ZM4.41149 36.4024C4.62329 36.4929 4.69114 36.6721 5.07719 38.162C5.24847 38.8236 5.62397 40.2192 5.9112 41.2629C6.19843 42.3063 6.5769 43.7413 6.75181 44.4515C6.92704 45.1618 7.10887 45.7817 7.15663 45.8293C7.43958 46.1118 7.8299 45.4923 8.0394 44.4275C8.20179 43.6025 8.76537 41.4233 9.15735 40.1057C9.58753 38.6582 9.92252 37.4159 9.98774 37.0262C10.1004 36.3531 10.0879 36.3571 12.2638 36.3571C14.1585 36.3571 14.202 36.3613 14.3433 36.5626C14.5491 36.8562 14.564 50.5645 14.3588 50.845C14.2128 51.0442 13.2342 51.1439 12.5013 51.034C11.8811 50.9413 11.8913 51.0308 11.8913 45.7057C11.8913 41.2494 11.8498 40.4296 11.6242 40.4296C11.4611 40.4296 11.2342 41.056 10.9199 42.3737C10.7315 43.1625 10.409 44.4331 10.2032 45.1967C9.72324 46.9773 9.04898 49.674 8.91459 50.3504C8.77657 51.0446 8.61484 51.114 7.27719 51.0518C6.19481 51.0018 6.00244 50.9551 5.91219 50.72C5.87925 50.6352 5.64802 49.6908 5.39801 48.6214C4.90459 46.511 4.39041 44.4617 4.09758 43.4381C3.9958 43.0816 3.85119 42.4986 3.77642 42.1422C3.60382 41.3188 3.24973 40.3155 3.11599 40.2708C2.8841 40.1939 2.85248 40.7894 2.82415 45.733L2.79484 50.8976L2.54483 50.9933C2.19634 51.1268 0.528631 51.061 0.375465 50.9078C0.243379 50.7756 0.16696 37.1288 0.295752 36.6461C0.357677 36.413 0.393251 36.4008 1.1884 36.3462C2.23883 36.2735 4.18915 36.3077 4.41149 36.4024ZM77.4199 36.6014C77.5122 36.7277 77.5379 38.016 77.5379 42.5696C77.5379 47.7254 77.554 48.3932 77.6835 48.5224C77.8076 48.6464 78.166 48.6688 80.1173 48.6737C85.5684 48.6875 85.0849 48.5616 85.0279 49.9515C84.9771 51.1837 85.4633 51.0745 80.035 51.0745C75.0734 51.0745 74.8899 51.0636 74.7868 50.7624C74.6916 50.4849 74.7209 36.633 74.8168 36.5369C75.0417 36.3127 77.2483 36.3673 77.4199 36.6014ZM90.6792 39.9775C87.6485 40.3711 85.8072 43.1895 86.2516 46.7547C86.5757 49.357 87.8405 50.9676 89.8923 51.3905C92.3664 51.9008 94.4277 51.3833 95.6204 49.9522C96.7779 48.5636 96.7259 48.0502 95.3984 47.7724C93.9198 47.463 93.429 47.5925 92.9303 48.4238C92.1915 49.6556 90.1479 48.9861 89.6805 47.3594C89.5227 46.8099 89.4825 46.8165 92.9438 46.8165C95.5384 46.8165 96.1464 46.7921 96.4231 46.6767L96.7581 46.537L96.7035 45.4502C96.515 41.7203 94.1065 39.5322 90.6792 39.9775ZM102.216 39.9831C100.39 40.1531 99.333 40.7976 98.6439 42.1622C98.1491 43.1418 98.2648 43.3079 99.664 43.6245C100.899 43.9037 101.115 43.859 101.485 43.2474C102.158 42.1349 104.368 42.2425 104.658 43.4019C104.782 43.8984 104.446 44.0967 102.943 44.4117C100.378 44.9494 99.4911 45.2828 98.8451 45.9523C97.3985 47.4511 97.8066 50.2511 99.6054 51.1669C100.823 51.7871 103.243 51.6305 104.37 50.8585C104.85 50.5303 105.06 50.5398 105.185 50.8959C105.322 51.2882 105.56 51.352 106.883 51.352C108.435 51.352 108.455 51.3323 108.12 50.1488C107.941 49.5162 107.921 49.1719 107.889 46.2611C107.845 42.2152 107.782 41.839 107.019 41.0847C106.08 40.156 104.429 39.7776 102.216 39.9831ZM115.414 40.0916C114.796 40.2521 114.269 40.5352 113.937 40.8841C113.787 41.0416 113.612 41.1701 113.549 41.1701C113.435 41.1701 113.4 41.0929 113.289 40.5944C113.203 40.208 112.958 40.1363 111.749 40.1455C110.506 40.1547 110.401 40.1777 110.325 40.4592C110.195 40.9436 110.264 55.1066 110.398 55.2888C110.584 55.543 113.043 55.5637 113.294 55.3128C113.433 55.175 113.458 54.8731 113.493 52.9524C113.539 50.4175 113.518 50.475 114.229 50.9084C116.708 52.4204 119.859 51.1172 120.762 48.2064C121.077 47.189 121.08 44.1224 120.766 43.2197C119.946 40.8614 117.64 39.5132 115.414 40.0916ZM16.4576 40.1215C15.896 40.2386 15.9283 40.4306 16.9432 43.0215C17.372 44.1161 18.0634 45.928 18.4798 47.048C18.8961 48.168 19.3991 49.4642 19.5974 49.9285C20.4018 51.8117 19.8378 52.9067 18.0163 52.9975C16.9721 53.0498 16.8496 53.0988 16.7696 53.499C16.6964 53.864 16.8756 55.173 17.0268 55.3799C17.3842 55.8675 19.9011 55.8113 21.0418 55.2901C22.2569 54.7347 22.4713 54.298 25.0244 47.1867C25.1983 46.703 25.3808 46.2243 25.4302 46.1223C25.5304 45.9161 25.5712 45.8034 26.4019 43.4381C26.7238 42.5216 27.0736 41.5845 27.1793 41.3553C27.6668 40.2997 27.4586 40.1057 25.8387 40.1057C24.0557 40.1057 24.1868 39.9548 23.1864 43.1602C22.8844 44.1276 22.5734 45.148 22.495 45.4282C22.0451 47.0355 21.7345 47.2055 21.3975 46.0296C21.3102 45.7244 21.0566 44.9537 20.8346 44.3174C20.6126 43.6811 20.2206 42.5578 19.9637 41.8216C19.3454 40.0498 19.4162 40.109 17.8928 40.0919C17.2185 40.084 16.5726 40.0975 16.4576 40.1215ZM92.6513 40.353C94.8944 40.7703 96.2848 42.6933 96.3813 45.5127C96.4175 46.5715 96.6982 46.4926 92.8927 46.4926C88.944 46.4926 88.9809 46.4778 89.5023 47.8687C90.0975 49.457 92.6114 49.8838 93.2995 48.5136C93.6256 47.8648 93.7442 47.8345 95.0585 48.0654C96.3335 48.2893 96.404 48.4994 95.5555 49.5471C93.4991 52.086 89.0619 51.8647 87.4222 49.141C86.3286 47.3249 86.3468 44.104 87.4598 42.3723C88.5939 40.6075 90.3498 39.9245 92.6513 40.353ZM105.263 40.4365C106.026 40.6476 106.271 40.7834 106.817 41.3014C107.474 41.9232 107.5 42.0912 107.576 46.1223C107.633 49.1097 107.668 49.7263 107.811 50.2146C108.046 51.0189 107.985 51.0745 106.879 51.0745C105.875 51.0745 105.567 50.9844 105.487 50.6681C105.331 50.0439 104.944 50.0423 104.009 50.6625C101.466 52.3474 98.162 50.7618 98.3257 47.9355C98.4285 46.1674 99.2826 45.4946 102.28 44.8205C105.047 44.198 104.983 44.2289 104.983 43.5154C104.983 42.0491 102.148 41.6611 101.245 43.0034C100.938 43.4601 100.571 43.5081 99.4087 43.2441C98.5055 43.0389 98.5125 42.7081 99.444 41.5154C100.389 40.3057 103.025 39.817 105.263 40.4365ZM117.073 40.2422C119.418 40.6256 120.716 42.4572 120.813 45.5206C120.96 50.1133 117.574 52.7088 114.262 50.5421C113.133 49.8029 113.085 49.8983 113.183 52.6867C113.262 54.9346 113.247 55.0191 112.752 55.1523C112.26 55.2848 110.775 55.1724 110.625 54.9915C110.494 54.8333 110.398 41.451 110.524 40.8463L110.601 40.476L111.677 40.45C112.908 40.4201 113.05 40.4835 113.05 41.0656C113.05 41.3852 113.177 41.6331 113.341 41.6331C113.379 41.6331 113.652 41.4207 113.948 41.1613C114.923 40.3076 115.834 40.04 117.073 40.2422ZM19.1474 40.5917C19.2739 40.7325 20.5361 44.3203 21.2236 46.4926C21.7134 48.0407 22.0797 47.9753 22.5948 46.2466C22.7213 45.8218 23.0787 44.7245 23.3883 43.8083C23.6983 42.8919 24.0573 41.7985 24.1858 41.3786C24.4714 40.4471 24.5 40.4296 25.7395 40.4296C27.2017 40.4296 27.2047 40.4339 26.6892 41.8373C26.5152 42.3105 26.0528 43.5722 25.6611 44.6413C25.2695 45.7103 24.6743 47.314 24.338 48.2051C24.002 49.0959 23.5287 50.3872 23.2866 51.0745C22.1571 54.2779 21.6386 54.933 19.9541 55.2868C18.4962 55.5929 17.4191 55.4328 17.2778 54.8889C16.9079 53.4671 16.9718 53.3352 18.0614 53.2704C19.1017 53.2086 19.383 53.0764 19.8896 52.4115C20.636 51.4326 20.608 51.3047 18.4748 45.8908C18.1237 45 17.6448 43.7505 17.4106 43.1139C17.1764 42.4776 16.8819 41.7071 16.7561 41.4016C16.3522 40.4224 16.3443 40.4296 17.8266 40.4296C18.8289 40.4296 19.0236 40.4536 19.1474 40.5917ZM90.6387 42.4187C90.0191 42.7331 89.636 43.1734 89.4562 43.7774C89.1324 44.8668 89.198 44.9017 91.5363 44.8807C93.6164 44.8619 93.764 44.8287 93.764 44.3769C93.764 42.8176 92.0136 41.7209 90.6387 42.4187ZM115.213 42.3756C113.533 42.7156 112.681 44.9132 113.334 47.2203C114.086 49.8756 117.527 49.7296 118.06 47.0197C118.631 44.123 117.301 41.9528 115.213 42.3756ZM92.4863 42.8317C93.1411 43.2796 93.514 44.104 93.2027 44.415C93.039 44.5785 92.8848 44.5949 91.5386 44.5949C89.5517 44.5949 89.3874 44.4427 90.1166 43.2783C90.5725 42.5506 91.7507 42.3283 92.4863 42.8317ZM116.532 42.788C118.133 43.5884 118.382 47.3831 116.912 48.5751C116.459 48.9427 115.226 48.917 114.58 48.5271C113.341 47.78 113.043 44.5268 114.103 43.3223C114.737 42.6006 115.723 42.3839 116.532 42.788ZM103.002 46.3423C101.725 46.6606 101.601 46.7106 101.313 47.0243C100.352 48.0713 101.251 49.5339 102.76 49.3764C104.277 49.2179 104.983 48.3886 104.983 46.7642C104.983 45.8764 104.924 45.8635 103.002 46.3423ZM104.689 46.8628C104.823 48.9407 101.894 50.1268 101.273 48.2462C100.982 47.3669 101.46 46.9576 103.268 46.5373C104.471 46.2578 104.652 46.2992 104.689 46.8628Z" fill="white"/>
<path fill-rule="evenodd" clip-rule="evenodd" d="M35.5817 0.0734923C33.4167 0.165893 30.043 0.492091 29.7621 0.636776C29.0829 0.986322 28.9093 1.63609 29.3925 2.02049C29.6754 2.24541 29.9897 2.24409 32.6146 2.00536C33.2777 1.94486 33.9532 1.90178 34.116 1.90902C34.4595 1.9248 34.5732 1.80905 34.3755 1.6453C34.2658 1.55454 34.0339 1.56112 33.2408 1.67752C30.7275 2.04614 29.5071 1.98169 29.5098 1.48088C29.5137 0.76469 30.2153 0.628228 35.3034 0.354313C36.3235 0.299398 37.7004 0.212258 38.3631 0.160961C39.4827 0.0744784 43.1284 0.183321 43.333 0.309591C43.3728 0.333925 44.2737 0.388839 45.335 0.430929C47.0324 0.498668 47.3034 0.530893 47.589 0.698596C47.7764 0.808754 48.5334 1.01197 49.3826 1.18C63.0193 3.87805 74.5984 15.4542 76.2878 28.0789C77.0636 33.8782 77.0675 35.2484 76.307 35.2448C75.7157 35.2421 75.6251 35.0439 75.4999 33.4786C75.4453 32.7963 75.3827 32.1548 75.3606 32.0528C75.3389 31.9512 75.2325 31.1199 75.1248 30.2058C75.0171 29.2916 74.9126 28.5172 74.8929 28.4853C74.8731 28.4535 74.7727 27.9517 74.6699 27.3706C72.6804 16.1296 61.8042 5.34956 49.5637 2.48644C47.644 2.03759 47.6648 2.03825 47.3627 2.397C47.0903 2.71991 47.1859 2.89847 47.4856 2.62751C48.1193 2.05502 52.9202 3.55087 56.9536 5.5781C58.253 6.23083 61.0799 8.04465 62.1461 8.9098C62.5285 9.21989 63.071 9.64309 63.3514 9.84992C64.6007 10.7713 67.6634 13.9215 68.7843 15.4377C70.3107 17.5031 70.8117 18.3216 71.9126 20.5494C73.21 23.1751 73.9755 25.5844 74.4347 28.4893C74.5193 29.0236 74.6442 29.6902 74.712 29.9703C74.7802 30.2502 74.9024 31.2709 74.9841 32.238C75.2124 34.9442 75.2137 34.9511 75.4384 35.2122C75.8372 35.6752 76.8834 35.595 77.0876 35.0859C77.195 34.8183 77.059 31.2781 76.8893 29.924C76.363 25.7219 75.9802 24.2178 74.5793 20.842C71.3328 13.0189 62.9686 5.42421 54.1722 2.31282C52.2548 1.63478 49.26 0.813029 48.706 0.813029C48.6441 0.813029 48.2735 0.6838 47.8825 0.525633C46.8528 0.109335 40.3507 -0.129396 35.5817 0.0734923ZM37.6678 1.42893C37.5403 1.44866 37.3051 1.48549 37.145 1.51113C36.8311 1.56177 36.7053 1.7913 36.8502 2.04943C36.9721 2.26711 37.2373 2.23686 37.3446 1.9932C37.5307 1.56934 40.9505 1.5187 44.5181 1.88666C44.9094 1.9271 45.1683 2.00635 45.283 2.12079C45.474 2.31151 45.6417 2.34735 45.6417 2.19707C45.6417 1.91263 45.2016 1.67226 44.5702 1.61176C42.5444 1.41808 38.4484 1.30956 37.6678 1.42893ZM35.6012 36.0708C34.9767 36.1254 34.809 36.2224 34.7866 36.5423C34.6792 38.1 34.806 51.0342 34.9302 51.1575C35.1614 51.3873 43.7737 51.3571 44.584 51.1233C46.1921 50.66 47.205 49.6087 47.6365 47.955C48.0897 46.2172 47.255 44.0995 45.8927 43.5326C45.3778 43.3179 45.3558 43.141 45.7965 42.7503C48.0676 40.7365 47.0524 37.0056 44.0336 36.2737C43.0839 36.0435 37.4662 35.9083 35.6012 36.0708ZM50.2805 36.0853C49.7423 36.3105 49.6207 38.6314 50.1296 38.9704C50.434 39.1736 52.8672 39.0454 53.0161 38.8185C53.2779 38.4196 53.2565 36.5134 52.9874 36.2441C52.7489 36.0057 50.7505 35.8883 50.2805 36.0853ZM43.5889 36.4427C46.6269 37.0017 47.788 40.6833 45.5267 42.5865C44.9134 43.1028 44.9384 43.3422 45.6417 43.6908C48.6566 45.1846 47.7988 49.8951 44.3369 50.8563C43.384 51.1207 35.4908 51.1141 35.2962 50.8487C35.1522 50.6524 35.0933 36.6992 35.2352 36.4868C35.2728 36.4305 35.366 36.3582 35.4424 36.3253C35.6578 36.2336 43.0283 36.3398 43.5889 36.4427ZM52.7437 36.4924C52.9337 36.7518 52.9235 38.2818 52.7298 38.5581C52.5496 38.8149 50.741 38.8727 50.4116 38.6324C50.1362 38.4315 50.1408 36.5949 50.4168 36.3884C50.7133 36.1668 52.5658 36.2493 52.7437 36.4924ZM38.1362 38.8514C37.9613 39.026 37.9461 39.1532 37.9461 40.4298C37.9461 42.355 37.7409 42.2143 40.4887 42.1739L42.6432 42.1423L43.0905 41.8644C44.2997 41.1137 44.2978 39.5593 43.0872 38.9487C42.4225 38.6136 38.4527 38.5357 38.1362 38.8514ZM42.2964 39.0536C43.7997 39.3114 44.1268 40.9828 42.8086 41.6731C42.4709 41.8496 42.2858 41.8644 40.403 41.8644H38.3631L38.3374 40.5547C38.316 39.4544 38.3358 39.221 38.46 39.0967C38.6428 38.9145 41.3099 38.8843 42.2964 39.0536ZM58.6318 40.0578C57.251 40.4314 55.9733 41.5297 55.5356 42.7204C54.858 44.5631 54.9466 47.5206 55.723 48.9783C56.7767 50.9576 59.6582 51.8951 61.6122 50.8948C62.6168 50.3805 63.0328 50.925 62.5661 52.1443C62.155 53.2196 60.0528 53.5027 59.2992 52.5846C58.8436 52.0299 58.7979 52.0128 57.3953 51.8684C55.416 51.6649 55.2875 51.7264 55.443 52.8023C55.694 54.5421 56.979 55.4566 59.4109 55.6263C63.3971 55.9048 65.2526 55.0373 65.8014 52.6385C65.9908 51.8105 66.0978 40.7832 65.9199 40.4298C65.8053 40.2019 65.7839 40.1979 64.5335 40.1726C63.1751 40.145 63.1359 40.1565 62.828 40.6695C62.7258 40.8398 62.6998 40.8352 62.1326 40.5485C60.8124 39.8813 59.8065 39.7402 58.6318 40.0578ZM50.3078 40.1565C49.8253 40.3038 49.8187 40.3854 49.8421 45.9123C49.8678 51.9191 49.7031 51.2916 51.2657 51.3374C53.4403 51.4008 53.2562 51.9434 53.2239 45.5671L53.1986 40.5274L52.9874 40.3166C52.7506 40.0802 50.9178 39.9707 50.3078 40.1565ZM61.0809 40.3791C61.3305 40.4544 61.8167 40.7079 62.1609 40.9427C62.9535 41.483 63.1797 41.4751 63.2772 40.9029C63.3151 40.6797 63.3718 40.4712 63.4031 40.4403C63.4851 40.3581 65.2058 40.3706 65.5105 40.4554L65.7688 40.5274L65.7424 46.2869L65.7157 52.0463L65.4585 52.8046C64.8175 54.6944 63.4281 55.427 60.4942 55.4234C57.5162 55.4198 55.8521 54.3876 55.8063 52.5159C55.7922 51.9368 55.8172 51.9299 57.3245 52.0956C58.5449 52.2301 58.7135 52.2946 59.0136 52.7395C59.3348 53.216 59.564 53.2932 60.6625 53.2942C62.5803 53.2959 62.9686 52.9292 63.1231 50.9714C63.2275 49.6472 63.0882 49.5525 62.0536 50.2437C59.8167 51.7385 56.9991 50.9546 55.998 48.5584C54.5668 45.132 55.775 41.1759 58.4932 40.389C59.4039 40.1256 60.2258 40.1223 61.0809 40.3791ZM52.7832 40.5225C52.9469 40.7806 52.8995 50.6656 52.7338 50.831C52.5368 51.0279 51.877 51.1072 51.0667 51.0312L50.375 50.9664L50.2805 50.6271C50.1049 49.9954 50.1553 40.7911 50.3361 40.5337C50.5249 40.2644 52.6139 40.2548 52.7832 40.5225ZM59.7482 42.4077C57.4157 43.2505 57.5979 48.2694 59.9787 48.7629C61.9449 49.1704 63.0269 47.9866 63.0269 45.4283C63.0269 43.0074 61.6356 41.726 59.7482 42.4077ZM61.4847 42.8013C63.2012 43.6552 63.0997 47.716 61.3441 48.4483C60.091 48.9711 58.8515 48.1964 58.5683 46.7143C58.0093 43.7884 59.4863 41.8072 61.4847 42.8013ZM38.097 44.7917C37.8704 45.1146 37.8727 48.3039 38.0996 48.5305C38.2363 48.6669 38.515 48.6804 40.633 48.6528L43.0128 48.6216L43.5553 48.344C44.3132 47.956 44.5609 47.4956 44.5059 46.5785C44.4104 44.9916 43.7569 44.6723 40.4844 44.6154L38.2478 44.5766L38.097 44.7917ZM42.3138 44.9577C44.3402 45.2188 44.9371 47.5673 43.1383 48.2016C42.8003 48.321 38.7709 48.5157 38.4791 48.4272C38.3124 48.3762 38.2182 45.0949 38.3786 44.9344C38.4675 44.8456 41.5872 44.8643 42.3138 44.9577Z" fill="white"/>
</svg>
