<svg width="33" height="33" viewBox="0 0 33 33" fill="none" xmlns="http://www.w3.org/2000/svg">
<path d="M28.875 13.75H26.125V5.5H27.5V2.75H5.5V5.5H6.875V13.75H4.125C3.76033 13.75 3.41059 13.8949 3.15273 14.1527C2.89487 14.4106 2.75 14.7603 2.75 15.125V27.5H30.25V15.125C30.25 14.7603 30.1051 14.4106 29.8473 14.1527C29.5894 13.8949 29.2397 13.75 28.875 13.75ZM19.25 24.75V19.25H13.75V24.75H9.625V5.5H23.375V24.75H19.25Z" fill="white"/>
<path d="M12.375 8.25H15.125V11H12.375V8.25ZM17.875 8.25H20.625V11H17.875V8.25ZM12.375 13.75H15.125V16.5H12.375V13.75ZM17.875 13.75H20.625V16.5H17.875V13.75Z" fill="white"/>
</svg>
