<svg width="144" height="24" viewBox="0 0 144 24" fill="none" xmlns="http://www.w3.org/2000/svg">
<g clip-path="url(#clip0_1_248)">
<path opacity="0.1" fill-rule="evenodd" clip-rule="evenodd" d="M0 12C0 5.37258 5.37258 0 12 0C18.6274 0 24 5.37258 24 12C24 18.6274 18.6274 24 12 24C5.37258 24 0 18.6274 0 12Z" fill="white"/>
<path fill-rule="evenodd" clip-rule="evenodd" d="M12.0006 5.6001C10.2624 5.6001 10.0443 5.6077 9.36161 5.63876C8.68027 5.66997 8.2152 5.77783 7.80827 5.9361C7.38733 6.09957 7.03026 6.31824 6.67452 6.67411C6.31852 7.02985 6.09985 7.38692 5.93585 7.80772C5.77718 8.21479 5.66918 8.68 5.63851 9.36107C5.60798 10.0437 5.59998 10.262 5.59998 12.0002C5.59998 13.7383 5.60771 13.9558 5.63864 14.6385C5.66998 15.3198 5.77784 15.7849 5.93598 16.1918C6.09958 16.6127 6.31825 16.9698 6.67412 17.3256C7.02972 17.6816 7.38679 17.9008 7.80747 18.0642C8.21467 18.2225 8.67987 18.3304 9.36108 18.3616C10.0438 18.3926 10.2618 18.4002 11.9998 18.4002C13.7381 18.4002 13.9555 18.3926 14.6382 18.3616C15.3195 18.3304 15.7851 18.2225 16.1924 18.0642C16.6132 17.9008 16.9697 17.6816 17.3253 17.3256C17.6813 16.9698 17.9 16.6127 18.064 16.1919C18.2213 15.7849 18.3293 15.3197 18.3613 14.6386C18.392 13.9559 18.4 13.7383 18.4 12.0002C18.4 10.262 18.392 10.0439 18.3613 9.3612C18.3293 8.67986 18.2213 8.21479 18.064 7.80785C17.9 7.38692 17.6813 7.02985 17.3253 6.67411C16.9693 6.31811 16.6133 6.09944 16.192 5.9361C15.7839 5.77783 15.3186 5.66997 14.6373 5.63876C13.9546 5.6077 13.7373 5.6001 11.9986 5.6001H12.0006ZM11.4264 6.75343C11.5968 6.75316 11.7869 6.75343 12.0005 6.75343C13.7094 6.75343 13.9119 6.75956 14.5867 6.79023C15.2107 6.81876 15.5494 6.92303 15.775 7.01063C16.0737 7.12663 16.2866 7.2653 16.5105 7.4893C16.7345 7.7133 16.8731 7.92664 16.9894 8.22531C17.077 8.45064 17.1814 8.78931 17.2098 9.41332C17.2405 10.088 17.2471 10.2907 17.2471 11.9987C17.2471 13.7067 17.2405 13.9094 17.2098 14.584C17.1813 15.208 17.077 15.5467 16.9894 15.7721C16.8734 16.0707 16.7345 16.2834 16.5105 16.5073C16.2865 16.7313 16.0738 16.8699 15.775 16.9859C15.5497 17.0739 15.2107 17.1779 14.5867 17.2065C13.912 17.2371 13.7094 17.2438 12.0005 17.2438C10.2916 17.2438 10.0891 17.2371 9.41439 17.2065C8.79038 17.1777 8.45171 17.0734 8.22598 16.9858C7.92731 16.8698 7.71397 16.7311 7.48997 16.5071C7.26597 16.2831 7.1273 16.0703 7.01103 15.7715C6.92343 15.5462 6.81903 15.2075 6.79063 14.5835C6.75996 13.9088 6.75383 13.7062 6.75383 11.9971C6.75383 10.288 6.75996 10.0864 6.79063 9.41172C6.81916 8.78771 6.92343 8.44904 7.01103 8.22344C7.12703 7.92477 7.26597 7.71143 7.48997 7.48743C7.71397 7.26343 7.92731 7.12476 8.22598 7.00849C8.45158 6.92049 8.79038 6.81649 9.41439 6.78783C10.0048 6.76116 10.2336 6.75316 11.4264 6.75182V6.75343ZM15.4169 7.81611C14.9928 7.81611 14.6488 8.15971 14.6488 8.58385C14.6488 9.00785 14.9928 9.35185 15.4169 9.35185C15.8409 9.35185 16.1849 9.00785 16.1849 8.58385C16.1849 8.15984 15.8409 7.81611 15.4169 7.81611ZM12.0006 8.71345C10.1855 8.71345 8.71389 10.1851 8.71389 12.0001C8.71389 13.8152 10.1855 15.2862 12.0006 15.2862C13.8157 15.2862 15.2868 13.8152 15.2868 12.0001C15.2868 10.1851 13.8157 8.71345 12.0006 8.71345ZM12.0006 9.86679C13.1787 9.86679 14.1339 10.8219 14.1339 12.0001C14.1339 13.1783 13.1787 14.1335 12.0006 14.1335C10.8223 14.1335 9.86721 13.1783 9.86721 12.0001C9.86721 10.8219 10.8223 9.86679 12.0006 9.86679Z" fill="white"/>
<path opacity="0.1" fill-rule="evenodd" clip-rule="evenodd" d="M40 12C40 5.37258 45.3726 0 52 0C58.6274 0 64 5.37258 64 12C64 18.6274 58.6274 24 52 24C45.3726 24 40 18.6274 40 12Z" fill="white"/>
<path fill-rule="evenodd" clip-rule="evenodd" d="M58.4 11.9912C58.4 12.424 58.3559 12.8563 58.2694 13.2776C58.185 13.6889 58.06 14.0927 57.8962 14.4787C57.7362 14.8579 57.5378 15.2233 57.3059 15.5641C57.0774 15.9027 56.8143 16.2204 56.5252 16.5099C56.2355 16.7983 55.9167 17.0607 55.5783 17.2901C55.2364 17.5204 54.8705 17.7186 54.4911 17.8793C54.1045 18.0422 53.6997 18.167 53.2888 18.2513C52.8669 18.338 52.4331 18.3823 51.9997 18.3823C51.5659 18.3823 51.1321 18.338 50.7109 18.2513C50.2993 18.167 49.8946 18.0422 49.5083 17.8793C49.1289 17.7186 48.7626 17.5204 48.4208 17.2901C48.0823 17.0607 47.7635 16.7983 47.4745 16.5099C47.1851 16.2204 46.9219 15.9027 46.6932 15.5641C46.4625 15.2233 46.2638 14.8579 46.1031 14.4787C45.9394 14.0927 45.8141 13.6889 45.7294 13.2776C45.6437 12.8563 45.6 12.424 45.6 11.9912C45.6 11.5581 45.6437 11.1249 45.7294 10.7045C45.8141 10.2932 45.9394 9.88882 46.1032 9.50342C46.2638 9.12396 46.4626 8.75823 46.6932 8.41744C46.922 8.07854 47.1851 7.76147 47.4745 7.47155C47.7636 7.18319 48.0823 6.92139 48.4208 6.69234C48.7627 6.46108 49.129 6.26295 49.5083 6.10191C49.8946 5.93866 50.2993 5.81354 50.7109 5.72992C51.1322 5.6438 51.5659 5.6001 51.9997 5.6001C52.4332 5.6001 52.8669 5.6438 53.2888 5.72992C53.6998 5.81357 54.1045 5.93869 54.4911 6.10191C54.8705 6.26292 55.2364 6.46108 55.5783 6.69234C55.9168 6.92139 56.2356 7.18319 56.5252 7.47155C56.8143 7.76147 57.0775 8.07854 57.3059 8.41744C57.5378 8.75823 57.7362 9.12398 57.8962 9.50342C58.06 9.88882 58.185 10.2932 58.2694 10.7045C58.3559 11.1249 58.4 11.5581 58.4 11.9912ZM49.6677 7.05463C48.1435 7.77334 47.006 9.17575 46.6512 10.8659C46.7953 10.8672 49.0729 10.8959 51.6971 10.1996C50.7512 8.52133 49.7405 7.15171 49.6677 7.05463ZM52.15 11.0401C49.3358 11.8814 46.6353 11.8208 46.5384 11.8171C46.5369 11.8758 46.5341 11.9325 46.5341 11.9912C46.5341 13.3933 47.0638 14.6715 47.9344 15.638C47.9326 15.6352 49.4283 12.9855 52.3778 12.033C52.449 12.0093 52.5216 11.9881 52.5934 11.9675C52.4563 11.6573 52.3065 11.3465 52.15 11.0401ZM55.6092 7.89504C54.647 7.04776 53.3835 6.53382 51.9997 6.53382C51.5556 6.53382 51.1246 6.5875 50.7118 6.68673C50.7937 6.79659 51.8203 8.15656 52.755 9.8704C54.8173 9.09837 55.5958 7.915 55.6092 7.89504ZM52.966 12.8719C52.9538 12.8759 52.9416 12.8794 52.9297 12.8837C49.7049 14.0063 48.6518 16.2687 48.6404 16.2934C49.5683 17.0139 50.7321 17.4486 51.9997 17.4486C52.7566 17.4486 53.4776 17.2947 54.1335 17.0161C54.0526 16.5393 53.7351 14.8678 52.966 12.8719ZM55.0539 16.5174C56.2811 15.6905 57.1527 14.3773 57.3959 12.8562C57.2834 12.82 55.7542 12.3366 53.9901 12.6191C54.707 14.5864 54.9983 16.1885 55.0539 16.5174ZM53.1757 10.6837C53.3026 10.9439 53.4254 11.2088 53.5388 11.4751C53.5792 11.5706 53.6185 11.6642 53.657 11.7578C55.5346 11.5219 57.3843 11.9188 57.4634 11.935C57.4509 10.6412 56.9874 9.45379 56.2206 8.52416C56.2102 8.5388 55.3336 9.80361 53.1757 10.6837Z" fill="white"/>
<path opacity="0.1" fill-rule="evenodd" clip-rule="evenodd" d="M80 12C80 5.37258 85.3726 0 92 0C98.6274 0 104 5.37258 104 12C104 18.6274 98.6274 24 92 24C85.3726 24 80 18.6274 80 12Z" fill="white"/>
<path fill-rule="evenodd" clip-rule="evenodd" d="M91.6406 9.7537L91.6658 10.1689L91.2461 10.1181C89.7184 9.92318 88.3838 9.26221 87.2507 8.15211L86.6967 7.6013L86.554 8.00805C86.2518 8.91477 86.4449 9.87234 87.0744 10.5164C87.4102 10.8723 87.3346 10.9231 86.7554 10.7113C86.554 10.6435 86.3777 10.5926 86.3609 10.6181C86.3022 10.6774 86.5036 11.4485 86.6631 11.7536C86.8813 12.1773 87.3262 12.5925 87.8131 12.8382L88.2243 13.0331L87.7375 13.0416C87.2675 13.0416 87.2507 13.0501 87.301 13.2281C87.4689 13.7789 88.132 14.3636 88.8707 14.6178L89.3911 14.7957L88.9378 15.0669C88.2663 15.4567 87.4773 15.677 86.6883 15.694C86.3106 15.7025 86 15.7364 86 15.7618C86 15.8465 87.024 16.3211 87.62 16.5075C89.4079 17.0583 91.5315 16.821 93.1263 15.8804C94.2595 15.211 95.3926 13.8806 95.9214 12.5925C96.2068 11.9061 96.4922 10.6519 96.4922 10.0503C96.4922 9.66049 96.5174 9.60964 96.9874 9.14357C97.2644 8.8724 97.5246 8.57581 97.575 8.49107C97.6589 8.33007 97.6505 8.33007 97.2224 8.47412C96.509 8.72834 96.4083 8.69445 96.7608 8.31312C97.021 8.04195 97.3316 7.55046 97.3316 7.4064C97.3316 7.38098 97.2057 7.42335 97.063 7.49961C96.9119 7.58435 96.5761 7.71146 96.3243 7.78773L95.8711 7.93179L95.4598 7.65214C95.2331 7.49961 94.9142 7.33013 94.7463 7.27929C94.3182 7.16065 93.6635 7.1776 93.2774 7.31318C92.2282 7.69451 91.5651 8.6775 91.6406 9.7537Z" fill="white"/>
<path opacity="0.1" fill-rule="evenodd" clip-rule="evenodd" d="M120 12C120 5.37258 125.373 0 132 0C138.627 0 144 5.37258 144 12C144 18.6274 138.627 24 132 24C125.373 24 120 18.6274 120 12Z" fill="white"/>
<path fill-rule="evenodd" clip-rule="evenodd" d="M137.001 7.87476C137.552 8.02589 137.985 8.4712 138.132 9.03671C138.4 10.0616 138.4 12.2001 138.4 12.2001C138.4 12.2001 138.4 14.3385 138.132 15.3635C137.985 15.929 137.552 16.3743 137.001 16.5255C136.003 16.8001 132 16.8001 132 16.8001C132 16.8001 127.997 16.8001 126.999 16.5255C126.448 16.3743 126.015 15.929 125.867 15.3635C125.6 14.3385 125.6 12.2001 125.6 12.2001C125.6 12.2001 125.6 10.0616 125.867 9.03671C126.015 8.4712 126.448 8.02589 126.999 7.87476C127.997 7.6001 132 7.6001 132 7.6001C132 7.6001 136.003 7.6001 137.001 7.87476ZM130.8 10.4001V14.4001L134 12.4001L130.8 10.4001Z" fill="white"/>
</g>
<defs>
<clipPath id="clip0_1_248">
<rect width="144" height="24" fill="white"/>
</clipPath>
</defs>
</svg>
