<svg width="22" height="19" viewBox="0 0 22 19" fill="none" xmlns="http://www.w3.org/2000/svg">
<path d="M21.9527 17.4726L20.4619 12.2217V0.788495C20.4619 0.352359 20.1096 0 19.6734 0H2.32655C1.89041 0 1.53805 0.352359 1.53805 0.788495V12.2217L0.0473064 17.4726C-0.137497 17.9875 0.241966 18.5296 0.788985 18.5296H21.211C21.758 18.5296 22.1375 17.9875 21.9527 17.4726ZM3.31217 1.77411H18.6878V11.5071H3.31217V1.77411ZM8.93759 16.7555L9.13718 15.8438H12.8406L13.0402 16.7555H8.93759ZM14.4571 16.7555L13.9864 14.6192C13.9667 14.528 13.8854 14.464 13.7942 14.464H8.18606C8.09242 14.464 8.01357 14.528 7.99386 14.6192L7.52323 16.7555H2.09493L3.13722 13.0841H18.8628L19.9051 16.7555H14.4571Z" fill="white"/>
</svg>
