<svg width="47" height="29" viewBox="0 0 47 29" fill="none" xmlns="http://www.w3.org/2000/svg">
<path d="M45.7029 6.55084L25.2182 0.257216C24.1019 -0.0857386 22.8975 -0.0857386 21.782 0.257216L1.29654 6.55084C-0.432181 7.08179 -0.432181 9.36791 1.29654 9.89887L4.86783 10.996C4.08424 11.9647 3.60249 13.1463 3.55476 14.4403C2.84755 14.8456 2.34964 15.5771 2.34964 16.4503C2.34964 17.2419 2.76677 17.908 3.36749 18.3339L1.49262 26.7705C1.32959 27.5041 1.88772 28.2003 2.63899 28.2003H6.75958C7.51159 28.2003 8.06971 27.5041 7.90668 26.7705L6.03181 18.3339C6.63254 17.908 7.04966 17.2419 7.04966 16.4503C7.04966 15.6006 6.57452 14.8897 5.89963 14.477C5.95544 13.3739 6.51944 12.3987 7.41905 11.7803L21.7813 16.1932C22.4466 16.3974 23.723 16.6522 25.2174 16.1932L45.7029 9.8996C47.4324 9.36791 47.4324 7.08253 45.7029 6.55084ZM25.9078 18.4397C23.8126 19.083 22.0273 18.7276 21.091 18.4397L10.441 15.168L9.39967 23.5003C9.39967 26.0963 15.7124 28.2003 23.4997 28.2003C31.2871 28.2003 37.5998 26.0963 37.5998 23.5003L36.5584 15.1673L25.9078 18.4397Z" fill="white"/>
</svg>
