<svg width="27" height="24" viewBox="0 0 27 24" fill="none" xmlns="http://www.w3.org/2000/svg">
<path fill-rule="evenodd" clip-rule="evenodd" d="M14.3796 0.880561C14.3796 0.647022 14.2868 0.423048 14.1217 0.25791C13.9566 0.092773 13.7326 0 13.4991 0C13.2655 0 13.0415 0.092773 12.8764 0.25791C12.7113 0.423048 12.6185 0.647022 12.6185 0.880561V2.9352H10.3009C9.8884 2.93502 9.48543 3.05898 9.14439 3.29095L7.15432 4.64584C7.10547 4.67893 7.04777 4.69652 6.98877 4.69633H2.17269C1.93915 4.69633 1.71518 4.7891 1.55004 4.95424C1.3849 5.11937 1.29213 5.34335 1.29213 5.57689C1.29213 5.81043 1.3849 6.0344 1.55004 6.19954C1.71518 6.36468 1.93915 6.45745 2.17269 6.45745H4.02422L0.0710844 15.4744C-0.00358593 15.6504 -0.0199341 15.8456 0.0244356 16.0315C0.0688053 16.2175 0.17156 16.3843 0.317641 16.5076C0.411568 16.5827 0.506669 16.6543 0.680433 16.7671C0.898812 16.9091 1.21112 17.0935 1.61031 17.2754C2.40868 17.6406 3.56163 18.0034 4.98696 18.0034C6.15169 18.0056 7.30327 17.7573 8.36362 17.2754C8.76281 17.0935 9.07512 16.9091 9.2935 16.7671C9.46961 16.6532 9.56353 16.5816 9.65746 16.5052C9.80471 16.3833 9.9083 16.2168 9.95256 16.0309C9.99683 15.8449 9.97938 15.6496 9.90284 15.4744L5.94854 6.45745H6.98877C7.40088 6.45745 7.80359 6.333 8.14407 6.1017L10.1353 4.74681C10.1838 4.71395 10.2411 4.69637 10.2997 4.69633H12.6185V21.7205H7.35039C7.11685 21.7205 6.89288 21.8133 6.72774 21.9784C6.5626 22.1436 6.46983 22.3675 6.46983 22.6011C6.46983 22.8346 6.5626 23.0586 6.72774 23.2237C6.89288 23.3889 7.11685 23.4816 7.35039 23.4816H19.6477C19.8813 23.4816 20.1052 23.3889 20.2704 23.2237C20.4355 23.0586 20.5283 22.8346 20.5283 22.6011C20.5283 22.3675 20.4355 22.1436 20.2704 21.9784C20.1052 21.8133 19.8813 21.7205 19.6477 21.7205H14.3796V4.69633H16.6973C16.756 4.69633 16.8147 4.71394 16.8616 4.74681L18.854 6.1017C19.1945 6.333 19.5972 6.45745 20.0093 6.45745H21.0496L17.0953 15.4744C17.0162 15.6547 16.9998 15.8563 17.0488 16.047C17.0977 16.2377 17.2092 16.4065 17.3653 16.5264C17.3794 16.5369 17.3653 16.5264 17.3677 16.5264C17.4841 16.6141 17.6056 16.6949 17.7316 16.7682C17.9488 16.8997 18.26 17.0688 18.6591 17.2379C19.7208 17.6816 20.8605 17.9084 22.0111 17.9047C23.1623 17.9082 24.3024 17.681 25.3643 17.2367C25.7612 17.0688 26.0735 16.8997 26.2918 16.7682C26.4174 16.6941 26.5389 16.6134 26.6558 16.5264C26.8119 16.4065 26.9234 16.2377 26.9723 16.047C27.0213 15.8563 27.0049 15.6547 26.9259 15.4744L22.9739 6.45745H24.8266C25.0601 6.45745 25.2841 6.36468 25.4492 6.19954C25.6144 6.0344 25.7072 5.81043 25.7072 5.57689C25.7072 5.34335 25.6144 5.11937 25.4492 4.95424C25.2841 4.7891 25.0601 4.69633 24.8266 4.69633H20.0105C19.9519 4.69628 19.8947 4.6787 19.8461 4.64584L17.8537 3.29095C17.513 3.0592 17.1105 2.93526 16.6984 2.9352H14.3796V0.880561ZM1.98484 15.4955C2.90896 15.9873 3.94015 16.2434 4.98696 16.2411C6.03377 16.2434 7.06497 15.9873 7.98909 15.4955L4.98696 8.65063L1.98484 15.4955ZM19.0208 15.4674C19.117 15.5143 19.2251 15.5648 19.3436 15.6153C19.9659 15.8771 20.8758 16.1436 22.0111 16.1436C23.0462 16.1466 24.0685 15.9154 25.0015 15.4674L22.0111 8.64946L19.0208 15.4674Z" fill="white"/>
</svg>
