<svg width="252" height="256" viewBox="0 0 252 256" fill="none" xmlns="http://www.w3.org/2000/svg">
<g opacity="0.3">
<path opacity="0.3" d="M188.899 22.1954C188.98 22.2884 189.078 22.3645 189.189 22.4194C189.299 22.4743 189.419 22.5069 189.542 22.5153C189.665 22.5238 189.789 22.5079 189.906 22.4686C190.023 22.4293 190.131 22.3674 190.223 22.2863C190.983 21.6247 191.782 20.9852 192.6 20.3872C192.798 20.242 192.932 20.0248 192.972 19.7822C193.012 19.5396 192.955 19.2909 192.814 19.0897L192.803 19.0746C192.73 18.9751 192.639 18.8909 192.533 18.8268C192.428 18.7627 192.311 18.72 192.189 18.7011C192.067 18.6823 191.943 18.6876 191.823 18.7168C191.703 18.746 191.591 18.7985 191.491 18.8714C190.631 19.501 189.789 20.1735 188.989 20.8706C188.897 20.9516 188.82 21.0501 188.766 21.1605C188.711 21.271 188.678 21.3911 188.67 21.5142C188.661 21.6372 188.677 21.7607 188.716 21.8776C188.756 21.9945 188.818 22.1025 188.899 22.1954ZM196.778 17.7491C197.669 17.2682 198.589 16.8211 199.513 16.4194C199.626 16.3706 199.729 16.2998 199.815 16.2111C199.902 16.1225 199.969 16.0177 200.015 15.9027C200.061 15.7878 200.083 15.665 200.081 15.5413C200.079 15.4177 200.053 15.2957 200.003 15.1823C199.954 15.0689 199.883 14.9663 199.794 14.8805C199.705 14.7947 199.6 14.7273 199.485 14.6822C199.37 14.6371 199.247 14.6152 199.123 14.6177C199 14.6202 198.878 14.6472 198.764 14.6969C197.792 15.1196 196.824 15.59 195.887 16.0959C195.667 16.2142 195.504 16.4147 195.433 16.6534C195.362 16.892 195.388 17.1492 195.506 17.3684C195.524 17.4011 195.543 17.4328 195.565 17.4633C195.697 17.6511 195.894 17.7839 196.117 17.8366C196.341 17.8893 196.576 17.8582 196.778 17.7491ZM204.168 14.7713C205.141 14.5016 206.137 14.271 207.13 14.0858C207.375 14.0402 207.592 13.8991 207.733 13.6936C207.874 13.4881 207.927 13.2351 207.881 12.9902C207.836 12.7453 207.695 12.5286 207.489 12.3877C207.284 12.2468 207.031 12.1933 206.786 12.239C205.741 12.434 204.692 12.6769 203.667 12.9609C203.548 12.9938 203.437 13.0499 203.34 13.1258C203.242 13.2017 203.161 13.296 203.1 13.4033C203.04 13.5106 203.001 13.6289 202.986 13.7513C202.971 13.8737 202.98 13.9979 203.013 14.1167C203.046 14.2356 203.102 14.3468 203.178 14.444C203.253 14.5412 203.348 14.6225 203.455 14.6832C203.562 14.744 203.681 14.783 203.803 14.7981C203.925 14.8131 204.049 14.8039 204.168 14.771V14.7713ZM212.039 13.5217C213.048 13.4762 214.072 13.4742 215.081 13.5153C215.204 13.5206 215.327 13.5016 215.443 13.4592C215.559 13.4168 215.666 13.352 215.757 13.2684C215.848 13.1848 215.921 13.0841 215.973 12.972C216.025 12.8599 216.054 12.7387 216.059 12.6153C216.064 12.4919 216.045 12.3687 216.002 12.2527C215.96 12.1368 215.895 12.0304 215.811 11.9397C215.727 11.849 215.626 11.7757 215.514 11.724C215.402 11.6724 215.28 11.6433 215.157 11.6386C214.095 11.5954 213.018 11.5976 211.955 11.645C211.706 11.6562 211.472 11.7657 211.304 11.9495C211.136 12.1334 211.048 12.3764 211.059 12.6253C211.07 12.8741 211.179 13.1084 211.363 13.2765C211.547 13.4446 211.79 13.5328 212.039 13.5217ZM219.991 14.0568C220.983 14.2364 221.982 14.4611 222.959 14.7249C223.079 14.758 223.203 14.7671 223.326 14.7518C223.449 14.7365 223.568 14.697 223.675 14.6356C223.783 14.5743 223.877 14.4922 223.953 14.3942C224.029 14.2961 224.084 14.1841 224.117 14.0645C224.149 13.9449 224.157 13.8201 224.141 13.6972C224.125 13.5744 224.085 13.456 224.022 13.3488C223.96 13.2417 223.878 13.1478 223.779 13.0728C223.681 12.9977 223.568 12.9429 223.448 12.9115C222.42 12.634 221.37 12.3976 220.326 12.2087C220.204 12.1859 220.079 12.1873 219.958 12.213C219.837 12.2386 219.722 12.288 219.62 12.3583C219.518 12.4285 219.431 12.5182 219.364 12.6223C219.297 12.7263 219.251 12.8426 219.229 12.9645C219.206 13.0863 219.209 13.2113 219.235 13.3323C219.262 13.4533 219.312 13.5679 219.383 13.6694C219.454 13.7709 219.544 13.8574 219.648 13.9239C219.753 13.9904 219.869 14.0355 219.991 14.0568ZM227.627 16.3385C228.557 16.7336 229.48 17.1736 230.373 17.6464C230.593 17.7629 230.851 17.7873 231.089 17.714C231.327 17.6407 231.526 17.4759 231.642 17.2558C231.759 17.0357 231.783 16.7782 231.71 16.5402C231.637 16.3021 231.472 16.1029 231.252 15.9863C230.313 15.4888 229.34 15.0257 228.362 14.6098C228.249 14.5616 228.127 14.5361 228.003 14.535C227.88 14.5338 227.758 14.557 227.643 14.6031C227.529 14.6492 227.425 14.7175 227.337 14.8038C227.249 14.8902 227.179 14.9931 227.13 15.1066C227.082 15.2201 227.057 15.342 227.056 15.4654C227.054 15.5887 227.078 15.7111 227.124 15.8255C227.17 15.9399 227.238 16.044 227.324 16.1321C227.411 16.2201 227.514 16.2903 227.627 16.3385H227.627ZM249.779 43.2695C249.9 43.2467 250.016 43.2002 250.119 43.1328C250.222 43.0653 250.311 42.9782 250.381 42.8764C250.45 42.7745 250.499 42.66 250.524 42.5393C250.55 42.4186 250.551 42.2941 250.528 42.1729C250.332 41.1287 250.087 40.0788 249.8 39.053C249.732 38.8147 249.572 38.613 249.356 38.4921C249.14 38.3711 248.884 38.3406 248.646 38.4073C248.407 38.4739 248.204 38.6323 248.082 38.8478C247.959 39.0634 247.927 39.3186 247.992 39.5579C248.264 40.5318 248.496 41.5288 248.683 42.5204C248.705 42.6416 248.752 42.7572 248.819 42.8605C248.887 42.9638 248.974 43.0528 249.076 43.1223C249.177 43.1919 249.292 43.2407 249.413 43.266C249.533 43.2912 249.658 43.2924 249.779 43.2695ZM234.564 20.2546C235.381 20.8462 236.183 21.4806 236.947 22.1404C237.136 22.3032 237.381 22.3843 237.629 22.3661C237.878 22.3479 238.109 22.2317 238.271 22.0431C238.434 21.8546 238.515 21.6091 238.497 21.3607C238.479 21.1123 238.363 20.8813 238.174 20.7185C237.37 20.0239 236.525 19.3558 235.664 18.7328C235.462 18.5869 235.211 18.527 234.965 18.5665C234.719 18.606 234.499 18.7416 234.353 18.9434C234.207 19.1452 234.147 19.3967 234.187 19.6426C234.226 19.8885 234.362 20.1086 234.564 20.2546ZM247.571 35.3877C247.799 35.288 247.979 35.1017 248.07 34.8698C248.16 34.6379 248.155 34.3794 248.056 34.1512C247.63 33.1777 247.157 32.2096 246.65 31.2738C246.532 31.0548 246.331 30.8919 246.092 30.821C245.853 30.75 245.596 30.7769 245.377 30.8956C245.158 31.0143 244.996 31.2151 244.925 31.4539C244.854 31.6926 244.881 31.9498 244.999 32.1688C245.481 33.0581 245.931 33.9781 246.334 34.9033C246.434 35.1314 246.621 35.3106 246.852 35.4014C247.084 35.4922 247.343 35.4873 247.571 35.3877H247.571ZM240.45 25.6215C241.114 26.3808 241.754 27.1787 242.353 27.9935C242.5 28.1915 242.719 28.3238 242.962 28.3619C243.206 28.3999 243.454 28.3406 243.655 28.1968C243.855 28.053 243.99 27.8362 244.032 27.5932C244.074 27.3502 244.019 27.1005 243.878 26.8981C243.874 26.8927 243.87 26.8871 243.866 26.8819C243.236 26.0239 242.562 25.1837 241.864 24.3845C241.705 24.2034 241.484 24.0899 241.244 24.0674C241.005 24.0449 240.766 24.1151 240.577 24.2635C240.388 24.412 240.263 24.6273 240.228 24.8652C240.192 25.1031 240.25 25.3454 240.388 25.5422C240.407 25.569 240.428 25.5956 240.45 25.6215Z" fill="#91B3FA"/>
<path opacity="0.3" d="M249.465 49.4503C249.354 49.2938 249.295 49.1072 249.294 48.9158C249.292 48.4316 249.28 47.9395 249.258 47.4527C249.252 47.3295 249.271 47.2064 249.313 47.0905C249.355 46.9745 249.419 46.868 249.502 46.7769C249.585 46.6859 249.686 46.6121 249.797 46.5598C249.909 46.5075 250.03 46.4777 250.153 46.4721C250.276 46.4665 250.399 46.4852 250.515 46.5271C250.631 46.5691 250.737 46.6335 250.828 46.7166C250.919 46.7998 250.993 46.9 251.046 47.0117C251.098 47.1234 251.128 47.2442 251.133 47.3674C251.157 47.8793 251.17 48.3965 251.172 48.9065C251.173 49.1065 251.11 49.3016 250.993 49.4634C250.875 49.6252 250.709 49.7452 250.518 49.8059C250.328 49.8666 250.123 49.8648 249.933 49.8008C249.744 49.7369 249.58 49.6141 249.465 49.4503Z" fill="#91B3FA"/>
</g>
<g opacity="0.3">
<path opacity="0.3" d="M238.415 75.8633C238.287 75.6805 238.228 75.4581 238.249 75.2358C238.27 75.0136 238.369 74.806 238.529 74.6504C238.877 74.313 239.222 73.9625 239.557 73.6089C239.642 73.5184 239.743 73.4456 239.856 73.3945C239.969 73.3435 240.091 73.3152 240.215 73.3115C240.338 73.3077 240.462 73.3284 240.577 73.3725C240.693 73.4166 240.799 73.4831 240.889 73.5682C240.979 73.6534 241.051 73.7555 241.101 73.8686C241.151 73.9818 241.179 74.1038 241.182 74.2276C241.185 74.3514 241.163 74.4746 241.118 74.5901C241.074 74.7055 241.006 74.8109 240.921 74.9003C240.568 75.2725 240.204 75.6417 239.839 75.9971C239.741 76.092 239.624 76.1645 239.496 76.2097C239.368 76.2549 239.231 76.2717 239.096 76.259C238.961 76.2462 238.83 76.2041 238.712 76.1357C238.595 76.0673 238.493 75.9742 238.415 75.8628V75.8633Z" fill="#91B3FA"/>
<path opacity="0.3" d="M184.104 72.2053C184.257 72.4018 184.481 72.5295 184.728 72.5603C184.976 72.591 185.225 72.5224 185.421 72.3693C185.618 72.2163 185.745 71.9915 185.776 71.7443C185.807 71.4971 185.738 71.2478 185.585 71.0513C184.979 70.2722 184.396 69.4551 183.846 68.6137C183.709 68.4073 183.496 68.2634 183.253 68.2134C183.01 68.1635 182.758 68.2116 182.55 68.3472C182.343 68.4829 182.197 68.6951 182.146 68.9375C182.094 69.18 182.14 69.433 182.274 69.6415C182.512 70.0061 182.756 70.3652 183.004 70.7188C183.359 71.223 183.728 71.7234 184.104 72.2053ZM181.023 65.6229C181.248 65.5161 181.421 65.3243 181.504 65.0897C181.588 64.8551 181.575 64.597 181.468 64.372C181.041 63.4723 180.648 62.5452 180.299 61.6155C180.255 61.5001 180.19 61.3943 180.105 61.3043C180.021 61.2142 179.92 61.1416 179.808 61.0907C179.696 61.0397 179.574 61.0113 179.451 61.0072C179.328 61.0031 179.205 61.0232 179.09 61.0666C178.974 61.1099 178.869 61.1756 178.779 61.2598C178.689 61.3441 178.616 61.4452 178.565 61.5575C178.514 61.6697 178.486 61.791 178.482 61.9142C178.477 62.0374 178.498 62.1603 178.541 62.2757C178.908 63.2543 179.322 64.2305 179.772 65.1769C179.795 65.2252 179.822 65.2715 179.852 65.3152C179.98 65.4963 180.167 65.6264 180.381 65.6827C180.596 65.739 180.823 65.7178 181.023 65.6229ZM187.516 76.0185C188.264 76.7474 189.054 77.4545 189.864 78.1195C190.056 78.2776 190.303 78.3527 190.551 78.3284C190.799 78.3041 191.027 78.1822 191.185 77.9897C191.343 77.7972 191.418 77.5498 191.394 77.3019C191.37 77.0539 191.248 76.8259 191.056 76.6678C190.286 76.0362 189.537 75.3651 188.826 74.6728C188.647 74.501 188.408 74.4069 188.16 74.411C187.912 74.4151 187.676 74.5171 187.503 74.6947C187.33 74.8724 187.234 75.1112 187.237 75.3592C187.239 75.6071 187.339 75.8441 187.516 76.0183V76.0185ZM178.197 58.0808C178.317 58.0537 178.431 58.0031 178.531 57.9321C178.632 57.861 178.718 57.7707 178.784 57.6665C178.85 57.5622 178.894 57.446 178.915 57.3245C178.936 57.2029 178.933 57.0785 178.906 56.9582C178.687 55.9883 178.508 54.9976 178.372 54.0135C178.338 53.7669 178.207 53.5439 178.008 53.3936C177.81 53.2433 177.56 53.178 177.313 53.2121C177.067 53.2461 176.844 53.3767 176.693 53.5752C176.543 53.7736 176.478 54.0237 176.512 54.2703C176.655 55.3067 176.844 56.3501 177.074 57.3714C177.101 57.4918 177.152 57.6057 177.223 57.7066C177.294 57.8075 177.384 57.8933 177.488 57.9592C177.592 58.0251 177.709 58.0698 177.83 58.0907C177.952 58.1115 178.076 58.1082 178.197 58.0808ZM194.028 81.0857C194.918 81.6318 195.844 82.1475 196.78 82.6184C196.89 82.6748 197.01 82.7089 197.134 82.7186C197.257 82.7283 197.381 82.7135 197.499 82.6751C197.617 82.6366 197.726 82.5752 197.819 82.4944C197.913 82.4137 197.99 82.3151 198.046 82.2045C198.102 82.0938 198.135 81.9733 198.144 81.8497C198.153 81.7262 198.137 81.6021 198.098 81.4846C198.058 81.3672 197.996 81.2586 197.915 81.1653C197.834 81.0719 197.734 80.9956 197.623 80.9407C196.735 80.4932 195.855 80.0035 195.01 79.4848C194.798 79.3545 194.543 79.3139 194.301 79.3719C194.059 79.4299 193.849 79.5818 193.719 79.794C193.589 80.0063 193.548 80.2617 193.606 80.5039C193.664 80.7461 193.816 80.9554 194.028 81.0857ZM201.494 84.6015C202.484 84.9407 203.5 85.242 204.513 85.4972C204.633 85.5285 204.758 85.5358 204.881 85.5186C205.004 85.5014 205.122 85.4599 205.229 85.3968C205.335 85.3336 205.429 85.2499 205.503 85.1505C205.577 85.0512 205.631 84.9381 205.661 84.8178C205.691 84.6975 205.697 84.5724 205.679 84.4497C205.661 84.327 205.618 84.2092 205.554 84.103C205.49 83.9968 205.406 83.9044 205.306 83.8311C205.206 83.7578 205.092 83.705 204.971 83.6758C204.009 83.4333 203.043 83.1469 202.102 82.8248C201.985 82.7841 201.862 82.7669 201.738 82.7742C201.615 82.7815 201.494 82.8132 201.383 82.8673C201.272 82.9215 201.172 82.997 201.09 83.0897C201.008 83.1824 200.946 83.2903 200.906 83.4074C200.865 83.5244 200.849 83.6482 200.857 83.7716C200.865 83.8951 200.897 84.0158 200.952 84.1267C201.006 84.2377 201.082 84.3368 201.175 84.4182C201.268 84.4997 201.377 84.562 201.494 84.6015ZM209.548 86.4066C210.589 86.5221 211.647 86.5949 212.691 86.6232C212.815 86.6274 212.938 86.6071 213.054 86.5635C213.17 86.5198 213.276 86.4536 213.366 86.3687C213.456 86.2838 213.529 86.1819 213.58 86.0689C213.63 85.9558 213.658 85.8339 213.662 85.71C213.665 85.5862 213.644 85.4629 213.599 85.3473C213.555 85.2317 213.488 85.126 213.402 85.0363C213.317 84.9467 213.214 84.8749 213.101 84.825C212.988 84.7751 212.866 84.7481 212.742 84.7457C211.75 84.719 210.745 84.6496 209.756 84.5397C209.508 84.5122 209.26 84.5842 209.065 84.7398C208.871 84.8954 208.746 85.1219 208.719 85.3695C208.691 85.617 208.763 85.8654 208.919 86.0599C209.074 86.2544 209.301 86.3791 209.548 86.4066ZM217.805 86.4111C218.846 86.2962 219.894 86.1354 220.92 85.9333C221.041 85.91 221.157 85.8629 221.26 85.7948C221.363 85.7266 221.452 85.6388 221.521 85.5362C221.591 85.4336 221.639 85.3183 221.663 85.197C221.688 85.0758 221.688 84.9508 221.664 84.8294C221.64 84.708 221.593 84.5925 221.524 84.4896C221.455 84.3867 221.367 84.2983 221.264 84.2297C221.161 84.161 221.046 84.1134 220.924 84.0895C220.803 84.0657 220.678 84.066 220.557 84.0906C219.583 84.2826 218.587 84.4351 217.599 84.5442C217.475 84.5569 217.356 84.594 217.247 84.6531C217.138 84.7122 217.042 84.7923 216.965 84.8887C216.887 84.9851 216.829 85.0959 216.794 85.2148C216.76 85.3337 216.749 85.4583 216.762 85.5814C216.776 85.7045 216.814 85.8237 216.873 85.9321C216.933 86.0406 217.014 86.1361 217.111 86.2132C217.208 86.2903 217.319 86.3475 217.438 86.3815C217.557 86.4154 217.682 86.4255 217.805 86.4111H217.805ZM225.864 84.5999C226.852 84.2593 227.838 83.8718 228.795 83.4482C229.023 83.3475 229.202 83.1603 229.292 82.928C229.381 82.6956 229.375 82.4371 229.275 82.2092C229.174 81.9814 228.987 81.8029 228.754 81.713C228.522 81.6231 228.264 81.6292 228.036 81.73C227.126 82.1325 226.189 82.5004 225.252 82.8241C225.135 82.8644 225.028 82.9271 224.936 83.0089C224.843 83.0907 224.768 83.1899 224.714 83.3007C224.66 83.4116 224.628 83.532 224.621 83.6551C224.614 83.7782 224.63 83.9016 224.671 84.0181C224.711 84.1347 224.774 84.2422 224.855 84.3345C224.937 84.4268 225.036 84.5021 225.147 84.5561C225.258 84.6101 225.378 84.6417 225.501 84.6491C225.624 84.6566 225.748 84.6397 225.864 84.5995V84.5999ZM233.322 81.0665C233.978 80.663 234.629 80.2344 235.258 79.7925C235.485 79.6325 235.711 79.4704 235.933 79.3063C236.034 79.2341 236.119 79.1426 236.183 79.037C236.248 78.9315 236.291 78.8142 236.31 78.6919C236.328 78.5696 236.322 78.4448 236.292 78.3249C236.262 78.2049 236.208 78.0923 236.133 77.9935C236.06 77.8941 235.968 77.8101 235.863 77.7463C235.757 77.6824 235.64 77.64 235.518 77.6215C235.396 77.6029 235.272 77.6085 235.152 77.638C235.033 77.6675 234.92 77.7203 234.82 77.7934C234.609 77.9493 234.395 78.1034 234.178 78.2558C233.58 78.676 232.961 79.0833 232.338 79.467C232.233 79.5316 232.142 79.6163 232.069 79.7161C231.997 79.816 231.945 79.9292 231.917 80.0491C231.888 80.1691 231.883 80.2935 231.903 80.4153C231.922 80.537 231.966 80.6537 232.03 80.7588C232.041 80.7753 232.051 80.7917 232.062 80.8074C232.2 81.0028 232.407 81.1384 232.641 81.1866C232.875 81.2347 233.118 81.1918 233.322 81.0665Z" fill="#91B3FA"/>
<path opacity="0.3" d="M176.332 49.6787C176.221 49.5208 176.161 49.3324 176.161 49.1393C176.161 48.6308 176.172 48.1129 176.193 47.5995C176.198 47.4757 176.226 47.3539 176.278 47.2412C176.329 47.1285 176.402 47.027 176.493 46.9428C176.584 46.8585 176.691 46.793 176.807 46.7502C176.923 46.7073 177.047 46.6879 177.17 46.693C177.294 46.6981 177.416 46.7277 177.528 46.78C177.64 46.8323 177.741 46.9063 177.825 46.9978C177.908 47.0893 177.973 47.1964 178.015 47.313C178.057 47.4296 178.076 47.5533 178.069 47.6771C178.049 48.1646 178.039 48.6568 178.039 49.1395C178.039 49.3391 177.975 49.5335 177.857 49.6945C177.739 49.8555 177.573 49.9747 177.383 50.0348C177.193 50.0949 176.988 50.0928 176.799 50.0287C176.61 49.9647 176.446 49.8421 176.332 49.6787Z" fill="#91B3FA"/>
</g>
<path d="M187.703 38.2837C187.727 38.1957 187.779 38.1177 187.85 38.0604C187.921 38.0031 188.008 37.9695 188.1 37.9642L193.431 37.6532C194.652 35.4373 196.225 33.4353 198.09 31.7258L197.136 26.4729C197.12 26.383 197.132 26.2903 197.171 26.2076C197.21 26.125 197.274 26.0565 197.354 26.0118L202.94 22.8749C203.019 22.8302 203.111 22.8115 203.202 22.8214C203.293 22.8312 203.378 22.8692 203.446 22.93L207.434 26.479C209.864 25.777 212.392 25.4759 214.918 25.5877L217.96 21.1965C218.012 21.1215 218.086 21.0645 218.172 21.0336C218.258 21.0026 218.351 20.9993 218.439 21.024L224.607 22.7559C224.695 22.7806 224.773 22.8321 224.83 22.9033C224.887 22.9744 224.921 23.0617 224.926 23.1529L225.237 28.486C227.453 29.7066 229.454 31.2803 231.163 33.1453L236.415 32.1921C236.505 32.1757 236.597 32.1878 236.68 32.2267C236.763 32.2656 236.831 32.3294 236.876 32.409L240.012 37.9966C240.057 38.0762 240.075 38.1679 240.066 38.2587C240.056 38.3495 240.018 38.435 239.957 38.5032L236.409 42.4912C237.111 44.9217 237.412 47.4504 237.3 49.9778L241.691 53.02C241.766 53.072 241.823 53.1462 241.854 53.2321C241.885 53.3181 241.888 53.4115 241.863 53.4995L240.131 59.6686C240.106 59.7565 240.055 59.8345 239.983 59.8918C239.912 59.9491 239.825 59.9827 239.734 59.9881L234.402 60.299C233.182 62.515 231.608 64.517 229.744 66.2264L230.697 71.4793C230.713 71.5692 230.701 71.662 230.662 71.7446C230.623 71.8273 230.56 71.8957 230.48 71.9404L224.894 75.0775C224.814 75.1222 224.722 75.1409 224.632 75.131C224.541 75.1211 224.455 75.0831 224.387 75.0224L220.4 71.4734C217.97 72.1755 215.442 72.4765 212.915 72.3646L209.873 76.7559C209.821 76.831 209.747 76.888 209.661 76.919C209.575 76.9499 209.482 76.9532 209.394 76.9285L203.226 75.1957C203.138 75.171 203.06 75.1195 203.003 75.0483C202.946 74.9772 202.912 74.8899 202.907 74.7987L202.596 69.4655C200.381 68.245 198.379 66.6713 196.67 64.8063L191.418 65.7596C191.328 65.7759 191.236 65.7637 191.153 65.7248C191.07 65.6859 191.002 65.6222 190.957 65.5426L187.821 59.9551C187.776 59.8754 187.758 59.7837 187.768 59.6929C187.778 59.6021 187.815 59.5166 187.876 59.4483L191.424 55.4601C190.722 53.0295 190.421 50.5008 190.533 47.9734L186.143 44.9312C186.068 44.8791 186.011 44.805 185.98 44.7191C185.949 44.6331 185.946 44.5397 185.97 44.4517L187.703 38.2837Z" fill="#91B3FA"/>
<path d="M209.244 53.4083C210.391 54.6169 211.962 55.3336 213.626 55.4075C215.291 55.4815 216.919 54.907 218.169 53.805C219.418 52.7029 220.192 51.1591 220.327 49.4981C220.462 47.8372 219.948 46.1886 218.893 44.899C217.838 43.6094 216.324 42.7793 214.669 42.5832C213.015 42.3871 211.349 42.8404 210.022 43.8476C208.694 44.8549 207.809 46.3377 207.553 47.9842C207.296 49.6307 207.688 51.3127 208.645 52.6763C208.827 52.9347 209.027 53.1793 209.244 53.4083ZM218.853 49.1074C218.822 50.2495 218.397 51.3458 217.649 52.2094C216.901 53.0731 215.877 53.6506 214.752 53.8437C213.626 54.0368 212.468 53.8334 211.475 53.2682C210.482 52.7031 209.716 51.8111 209.307 50.7443C208.898 49.6775 208.872 48.5019 209.232 47.4178C209.593 46.3336 210.318 45.408 211.284 44.7987C212.25 44.1894 213.398 43.9341 214.531 44.0762C215.665 44.2183 216.714 44.7491 217.5 45.5782C217.668 45.7555 217.823 45.945 217.964 46.1451C218.572 47.0107 218.883 48.0499 218.852 49.1074H218.853Z" fill="#BDD0FB"/>
<path d="M201.111 58.1328C200.799 57.6886 200.509 57.229 200.244 56.7556C200.159 56.6057 200.078 56.4543 199.998 56.3016C199.608 55.5502 199.278 54.769 199.011 53.9652C199.007 53.9544 199.004 53.9435 199 53.9325C198.99 53.9016 198.98 53.8706 198.97 53.8394C198.95 53.7789 198.932 53.7183 198.913 53.6577C198.898 53.6104 198.892 53.5606 198.896 53.5111C198.901 53.4617 198.915 53.4136 198.938 53.3696C198.961 53.3255 198.992 53.2865 199.03 53.2548C199.068 53.223 199.112 53.1991 199.16 53.1844C199.207 53.1698 199.257 53.1647 199.306 53.1695C199.356 53.1742 199.404 53.1887 199.448 53.2121C199.491 53.2355 199.53 53.2674 199.561 53.3058C199.593 53.3443 199.616 53.3886 199.63 53.4362C200.541 56.3851 202.332 58.9845 204.764 60.8842C207.195 62.784 210.151 63.8931 213.231 64.0622C216.092 64.2242 218.938 63.563 221.435 62.157C221.886 61.9037 222.325 61.6277 222.748 61.3301C225.797 59.1772 227.939 55.9705 228.762 52.3297C229.585 48.6888 229.029 44.8722 227.203 41.6172C223.129 34.3608 213.919 31.7755 206.667 35.8477C204.289 37.1827 202.316 39.1375 200.96 41.5043C200.936 41.5472 200.903 41.5848 200.864 41.615C200.825 41.6452 200.78 41.6674 200.733 41.6804C200.685 41.6933 200.636 41.6968 200.587 41.6906C200.538 41.6843 200.49 41.6685 200.448 41.644C200.405 41.6195 200.367 41.5869 200.337 41.5478C200.307 41.5088 200.285 41.4642 200.272 41.4166C200.259 41.369 200.255 41.3193 200.261 41.2704C200.268 41.2214 200.284 41.1742 200.308 41.1314C201.732 38.6465 203.802 36.5941 206.299 35.1922C213.912 30.9166 223.584 33.6363 227.857 41.2488C229.775 44.666 230.358 48.6727 229.494 52.4949C228.631 56.3172 226.381 59.6836 223.181 61.9437C222.736 62.2562 222.276 62.546 221.802 62.8121C218.386 64.7306 214.379 65.314 210.558 64.4497C206.736 63.5855 203.37 61.3348 201.111 58.1328Z" fill="#BDD0FB"/>
<g opacity="0.3">
<path opacity="0.3" d="M150.172 10.1249C150.1 10.0224 150.063 9.89922 150.067 9.77396C150.071 9.64871 150.115 9.52806 150.193 9.43009C150.5 9.04491 150.823 8.66378 151.152 8.29744C151.256 8.18505 151.399 8.11798 151.552 8.11079C151.704 8.10359 151.853 8.15685 151.967 8.25901C152.08 8.36117 152.149 8.50398 152.158 8.65645C152.167 8.80892 152.115 8.95874 152.014 9.07339C151.7 9.42255 151.393 9.78567 151.1 10.1532C151.044 10.2239 150.972 10.2804 150.89 10.3184C150.809 10.3564 150.719 10.3748 150.629 10.372C150.539 10.3693 150.451 10.3455 150.371 10.3026C150.292 10.2597 150.224 10.1988 150.172 10.1249H150.172Z" fill="#91B3FA"/>
<path opacity="0.3" d="M153.297 6.95225C153.398 7.06843 153.54 7.13981 153.694 7.1507C153.847 7.16159 153.999 7.1111 154.115 7.01033C154.728 6.47884 155.368 5.97869 156.032 5.5118C156.172 5.41379 156.312 5.31701 156.455 5.22145C156.582 5.13557 156.671 5.00256 156.7 4.85162C156.73 4.70069 156.698 4.54418 156.613 4.41647C156.523 4.29289 156.391 4.20782 156.241 4.17851C156.092 4.1492 155.937 4.17783 155.807 4.25861C155.658 4.35888 155.511 4.46023 155.365 4.56265C154.669 5.05206 153.998 5.57647 153.355 6.13385C153.246 6.22785 153.177 6.35871 153.159 6.50113C153.142 6.64355 153.177 6.78742 153.26 6.90493C153.272 6.9212 153.284 6.93673 153.297 6.95225ZM158.995 3.73065C159.871 3.28606 160.774 2.89559 161.698 2.56143C161.77 2.53617 161.837 2.49679 161.894 2.44557C161.951 2.39435 161.997 2.33231 162.03 2.26304C162.063 2.19377 162.082 2.11864 162.086 2.04201C162.09 1.96538 162.078 1.88877 162.052 1.81662C162.026 1.74446 161.986 1.6782 161.934 1.62166C161.882 1.56511 161.82 1.51942 161.75 1.48722C161.68 1.45502 161.605 1.43696 161.528 1.43407C161.452 1.43119 161.375 1.44354 161.303 1.47041C160.335 1.82059 159.389 2.22994 158.471 2.69613C158.333 2.76584 158.23 2.88716 158.182 3.03343C158.134 3.1797 158.146 3.33896 158.216 3.47622C158.228 3.50101 158.243 3.52487 158.259 3.54762C158.339 3.66151 158.458 3.74268 158.593 3.77629C158.728 3.8099 158.871 3.7937 158.995 3.73065ZM164.525 1.7354C165.483 1.51914 166.454 1.36242 167.432 1.26616C167.585 1.2511 167.726 1.17583 167.824 1.05692C167.921 0.938002 167.968 0.785179 167.952 0.632069C167.937 0.478959 167.862 0.338105 167.743 0.240489C167.624 0.142873 167.472 0.0964928 167.319 0.111553C166.293 0.212598 165.275 0.37692 164.269 0.603585C164.12 0.638474 163.991 0.730839 163.91 0.860557C163.829 0.990276 163.802 1.14684 163.836 1.29614C163.869 1.44544 163.961 1.57538 164.09 1.65766C164.219 1.73993 164.375 1.76788 164.525 1.7354ZM170.375 1.15994C171.357 1.18515 172.337 1.27089 173.308 1.41666C173.46 1.4382 173.614 1.399 173.736 1.30758C173.859 1.21617 173.941 1.07995 173.963 0.928612C173.986 0.777268 173.948 0.623057 173.858 0.499569C173.767 0.376081 173.632 0.29332 173.481 0.269314C172.462 0.116664 171.435 0.0267877 170.405 0.000189864C170.329 -0.00175884 170.253 0.0113092 170.182 0.0386502C170.111 0.0659913 170.046 0.10707 169.991 0.159539C169.935 0.212007 169.891 0.274838 169.86 0.344446C169.829 0.414054 169.812 0.489076 169.81 0.565226C169.808 0.641376 169.821 0.717164 169.849 0.788263C169.876 0.859363 169.917 0.924382 169.97 0.979606C170.022 1.03483 170.085 1.07918 170.154 1.11012C170.224 1.14106 170.299 1.15799 170.375 1.15994ZM176.189 2.03062C177.135 2.29415 178.065 2.61517 178.972 2.99191C179.114 3.05089 179.274 3.05103 179.416 2.99229C179.558 2.93354 179.671 2.82074 179.73 2.67868C179.789 2.53662 179.789 2.37695 179.731 2.23479C179.672 2.09263 179.559 1.97963 179.417 1.92064C178.466 1.52574 177.492 1.18913 176.5 0.912682C176.353 0.873171 176.195 0.893545 176.063 0.969374C175.93 1.0452 175.832 1.17036 175.792 1.31765C175.751 1.46493 175.769 1.62244 175.844 1.75595C175.918 1.88945 176.042 1.98816 176.189 2.03062H176.189ZM181.615 4.28645C182.468 4.7718 183.29 5.30949 184.077 5.89643C184.138 5.94198 184.207 5.97507 184.281 5.99379C184.355 6.01251 184.432 6.01651 184.507 6.00555C184.66 5.98342 184.797 5.90171 184.889 5.7784C184.981 5.65509 185.02 5.50029 184.998 5.34804C184.976 5.19579 184.894 5.05858 184.771 4.96657C183.946 4.35094 183.083 3.78696 182.188 3.27785C182.122 3.2402 182.049 3.21597 181.974 3.20653C181.898 3.19709 181.821 3.20263 181.748 3.22284C181.674 3.24305 181.606 3.27753 181.546 3.32431C181.485 3.37109 181.435 3.42925 181.397 3.49547C181.36 3.5617 181.336 3.63469 181.326 3.71028C181.317 3.78587 181.322 3.86258 181.342 3.93603C181.363 4.00948 181.397 4.07823 181.444 4.13835C181.491 4.19848 181.549 4.2488 181.615 4.28645H181.615ZM186.323 7.79979C187.032 8.48043 187.697 9.20423 188.316 9.96704C188.415 10.0828 188.554 10.1555 188.705 10.1695C188.856 10.1835 189.007 10.1377 189.125 10.0419C189.243 9.94619 189.318 9.80809 189.335 9.65726C189.353 9.50643 189.31 9.35488 189.217 9.2351C188.567 8.43565 187.869 7.67685 187.126 6.96301C187.015 6.85644 186.867 6.79832 186.713 6.80143C186.559 6.80454 186.413 6.86862 186.306 6.97959C186.2 7.09055 186.142 7.23931 186.145 7.39312C186.148 7.54694 186.212 7.69322 186.323 7.79979H186.323ZM192.206 15.2319C192.275 15.1997 192.337 15.1543 192.388 15.0981C192.44 15.0419 192.48 14.9762 192.506 14.9046C192.532 14.833 192.543 14.757 192.54 14.6809C192.537 14.6048 192.518 14.5301 192.486 14.4611C192.107 13.6505 191.686 12.8606 191.223 12.0948C191.153 11.9779 191.082 11.8628 191.01 11.7478C190.929 11.6174 190.798 11.5249 190.648 11.4906C190.498 11.4563 190.341 11.483 190.21 11.5648C190.08 11.6467 189.988 11.777 189.953 11.927C189.919 12.0771 189.946 12.2346 190.027 12.365C190.095 12.4724 190.162 12.581 190.228 12.6924C190.67 13.4236 191.073 14.1778 191.435 14.9518C191.467 15.0208 191.513 15.0828 191.569 15.1343C191.625 15.1857 191.691 15.2256 191.762 15.2516C191.834 15.2776 191.91 15.2893 191.986 15.2859C192.062 15.2825 192.137 15.2642 192.205 15.2319H192.206Z" fill="#91B3FA"/>
</g>
<g opacity="0.3">
<path opacity="0.3" d="M149.494 39.7348C150.087 40.5559 150.729 41.3405 151.417 42.0845C151.521 42.1964 151.666 42.2622 151.819 42.2677C151.972 42.2732 152.122 42.2178 152.234 42.1137C152.346 42.0096 152.413 41.8652 152.42 41.7121C152.426 41.559 152.372 41.4095 152.268 41.2964C151.612 40.587 151 39.8386 150.434 39.0553C150.345 38.93 150.21 38.8453 150.058 38.8198C149.906 38.7943 149.751 38.8301 149.625 38.9193C149.5 39.0086 149.415 39.144 149.39 39.2957C149.364 39.4474 149.4 39.603 149.489 39.7283L149.494 39.7348ZM148.655 37.3957C148.722 37.3588 148.78 37.3092 148.828 37.2496C148.875 37.1901 148.91 37.1218 148.931 37.0486C148.952 36.9754 148.959 36.8988 148.95 36.8231C148.942 36.7474 148.918 36.6742 148.881 36.6076C148.413 35.7615 147.997 34.8881 147.633 33.9922C147.574 33.8514 147.462 33.7397 147.321 33.6811C147.18 33.6225 147.021 33.6219 146.88 33.6793C146.739 33.7367 146.626 33.8475 146.565 33.9878C146.505 34.128 146.502 34.2864 146.558 34.4285C146.939 35.3674 147.376 36.2826 147.867 37.1692C147.877 37.1876 147.888 37.2054 147.9 37.2226C147.983 37.3395 148.105 37.4219 148.245 37.4538C148.384 37.4857 148.53 37.465 148.655 37.3956L148.655 37.3957ZM153.612 44.1844C154.387 44.8381 155.2 45.4444 156.047 46.0001C156.175 46.0834 156.332 46.1124 156.482 46.0807C156.632 46.0491 156.763 45.9594 156.847 45.8312C156.931 45.703 156.961 45.5467 156.93 45.3965C156.9 45.2463 156.811 45.1144 156.683 45.0296C155.875 44.4996 155.099 43.9213 154.36 43.298C154.302 43.2482 154.235 43.2103 154.162 43.1867C154.089 43.163 154.012 43.154 153.936 43.1602C153.86 43.1663 153.785 43.1875 153.717 43.2226C153.649 43.2576 153.589 43.3057 153.54 43.3642C153.49 43.4227 153.453 43.4904 153.43 43.5634C153.407 43.6363 153.398 43.7132 153.405 43.7894C153.412 43.8656 153.434 43.9398 153.469 44.0076C153.505 44.0753 153.553 44.1354 153.612 44.1843L153.612 44.1844ZM146.301 31.9567C146.45 31.9167 146.576 31.8194 146.653 31.6861C146.73 31.5528 146.751 31.3945 146.711 31.246C146.46 30.3124 146.266 29.3644 146.13 28.4072C146.12 28.3318 146.094 28.2592 146.056 28.1936C146.017 28.1281 145.966 28.0707 145.905 28.0249C145.844 27.9792 145.775 27.9458 145.701 27.9268C145.627 27.9078 145.551 27.9035 145.475 27.9142C145.4 27.9248 145.327 27.9503 145.262 27.989C145.196 28.0277 145.139 28.0789 145.093 28.1398C145.047 28.2007 145.014 28.27 144.995 28.3437C144.976 28.4175 144.972 28.4943 144.982 28.5697C145.124 29.5736 145.327 30.568 145.591 31.5471C145.61 31.6207 145.645 31.6897 145.691 31.75C145.737 31.8104 145.795 31.8611 145.861 31.8991C145.927 31.9372 146 31.9618 146.076 31.9717C146.151 31.9816 146.228 31.9765 146.301 31.9567ZM158.682 47.5052C159.591 47.9531 160.525 48.3459 161.481 48.6813C161.626 48.7301 161.784 48.7199 161.921 48.653C162.058 48.586 162.164 48.4676 162.214 48.3235C162.265 48.1794 162.256 48.0212 162.191 47.8832C162.126 47.7452 162.009 47.6385 161.865 47.5863C160.953 47.2666 160.062 46.8919 159.196 46.4642C159.058 46.3977 158.899 46.3884 158.755 46.4382C158.61 46.488 158.491 46.5929 158.423 46.7301C158.356 46.8673 158.345 47.0257 158.393 47.1708C158.442 47.3159 158.546 47.4359 158.682 47.5049V47.5052ZM164.401 49.5131C165.391 49.7305 166.393 49.8884 167.401 49.986C167.477 49.9933 167.553 49.9855 167.626 49.9633C167.699 49.941 167.767 49.9046 167.825 49.8561C167.884 49.8077 167.933 49.7481 167.968 49.6809C168.004 49.6136 168.026 49.54 168.034 49.4642C168.041 49.3884 168.033 49.3119 168.011 49.2391C167.989 49.1662 167.952 49.0985 167.904 49.0398C167.855 48.981 167.796 48.9324 167.729 48.8966C167.661 48.8609 167.588 48.8388 167.512 48.8315C166.55 48.7382 165.594 48.5874 164.65 48.3799C164.501 48.3484 164.345 48.3774 164.216 48.4604C164.088 48.5434 163.997 48.6737 163.965 48.8231C163.932 48.9724 163.959 49.1287 164.041 49.2579C164.123 49.3871 164.252 49.4788 164.401 49.5131ZM170.437 50.0935C171.45 50.0679 172.461 49.9807 173.463 49.8325C173.615 49.8101 173.752 49.728 173.844 49.6045C173.936 49.481 173.975 49.3261 173.952 49.1739C173.93 49.0217 173.848 48.8847 173.724 48.7929C173.601 48.7012 173.446 48.6623 173.294 48.6848C172.338 48.8264 171.374 48.9094 170.408 48.9334C170.332 48.9353 170.257 48.9522 170.187 48.9831C170.117 49.014 170.054 49.0583 170.002 49.1135C169.949 49.1687 169.908 49.2338 169.881 49.3049C169.854 49.376 169.841 49.4518 169.843 49.5279C169.845 49.6422 169.881 49.7531 169.947 49.8464C170.002 49.9248 170.076 49.9884 170.161 50.0315C170.246 50.0746 170.341 50.0959 170.437 50.0935H170.437Z" fill="#91B3FA"/>
<path opacity="0.3" d="M144.845 25.8359C144.778 25.7412 144.742 25.6288 144.74 25.513C144.731 25.0169 144.737 24.5178 144.757 24.0301C144.764 23.8764 144.831 23.7315 144.944 23.6273C145.057 23.523 145.207 23.4681 145.361 23.4744C145.514 23.4808 145.659 23.548 145.764 23.6612C145.868 23.7744 145.923 23.9243 145.916 24.0781C145.897 24.5431 145.891 25.0191 145.9 25.4931C145.902 25.6172 145.864 25.7388 145.792 25.8399C145.72 25.941 145.617 26.0163 145.499 26.0547C145.381 26.0931 145.254 26.0927 145.136 26.0533C145.018 26.014 144.916 25.9379 144.845 25.8363V25.8359Z" fill="#91B3FA"/>
</g>
<path d="M152.41 17.794C152.427 17.7352 152.461 17.6829 152.509 17.6446C152.557 17.6063 152.615 17.5838 152.676 17.5802L156.244 17.3722C157.06 15.8894 158.113 14.5497 159.361 13.4058L158.723 9.89094C158.712 9.83079 158.721 9.76875 158.747 9.71345C158.773 9.65815 158.815 9.61235 158.869 9.5824L162.607 7.48332C162.66 7.45339 162.721 7.44084 162.782 7.44743C162.843 7.45402 162.9 7.47942 162.945 7.52008L165.614 9.89498C167.24 9.42508 168.931 9.22353 170.622 9.29829L172.657 6.35996C172.692 6.30973 172.742 6.27161 172.799 6.25089C172.857 6.23017 172.919 6.22789 172.978 6.24437L177.105 7.40393C177.164 7.42042 177.216 7.45488 177.255 7.50251C177.293 7.55013 177.316 7.60854 177.319 7.66957L177.527 11.2382C179.01 12.0549 180.349 13.108 181.493 14.356L185.007 13.7182C185.067 13.7073 185.129 13.7154 185.184 13.7414C185.239 13.7675 185.285 13.8101 185.315 13.8633L187.414 17.6022C187.444 17.6556 187.456 17.7169 187.45 17.7776C187.443 17.8384 187.418 17.8956 187.377 17.9413L185.003 20.6101C185.473 22.2365 185.674 23.9286 185.599 25.6198L188.537 27.6555C188.587 27.6904 188.625 27.74 188.646 27.7975C188.667 27.855 188.669 27.9175 188.653 27.9764L187.493 32.1045C187.477 32.1633 187.442 32.2155 187.395 32.2538C187.347 32.2921 187.289 32.3146 187.228 32.3183L183.66 32.5264C182.843 34.0092 181.791 35.3489 180.543 36.4927L181.181 40.0078C181.191 40.0679 181.183 40.1299 181.157 40.1852C181.131 40.2405 181.089 40.2863 181.035 40.3162L177.297 42.4154C177.244 42.4452 177.183 42.4577 177.122 42.4512C177.061 42.4446 177.004 42.4192 176.958 42.3786L174.29 40.0038C172.664 40.4737 170.973 40.6752 169.282 40.6004L167.247 43.5388C167.212 43.5891 167.162 43.6272 167.105 43.6479C167.047 43.6686 166.985 43.6708 166.926 43.6543L162.799 42.4949C162.74 42.4783 162.688 42.4438 162.649 42.3962C162.611 42.3486 162.588 42.2902 162.585 42.2292L162.377 38.6606C160.894 37.8438 159.555 36.7907 158.411 35.5427L154.897 36.1806C154.837 36.1915 154.775 36.1834 154.72 36.1574C154.664 36.1313 154.619 36.0887 154.589 36.0355L152.49 32.2965C152.46 32.2432 152.448 32.1819 152.454 32.1211C152.461 32.0604 152.486 32.0032 152.527 31.9575L154.901 29.2887C154.431 27.6623 154.23 25.9702 154.305 24.279L151.367 22.2433C151.317 22.2084 151.279 22.1588 151.258 22.1013C151.237 22.0438 151.235 21.9812 151.251 21.9224L152.41 17.794Z" fill="#91B3FA"/>
<path d="M166.769 27.9678C167.549 28.7881 168.616 29.2741 169.746 29.3237C170.877 29.3733 171.982 28.9827 172.831 28.2339C173.679 27.4851 174.205 26.4365 174.296 25.3084C174.388 24.1803 174.039 23.0607 173.322 22.1847C172.606 21.3087 171.578 20.7447 170.454 20.6112C169.33 20.4776 168.199 20.7849 167.297 21.4686C166.395 22.1522 165.793 23.1588 165.618 24.277C165.443 25.3951 165.708 26.5377 166.357 27.4645C166.482 27.642 166.62 27.8102 166.769 27.9678ZM172.173 27.2908C171.865 27.5825 171.503 27.8108 171.108 27.9626C170.712 28.1144 170.29 28.1868 169.867 28.1756C169.443 28.1643 169.026 28.0697 168.639 27.8972C168.252 27.7246 167.902 27.4775 167.611 27.1699C167.027 26.5479 166.713 25.7199 166.738 24.8672C166.763 24.0144 167.124 23.2061 167.743 22.619C168.362 22.0319 169.188 21.7138 170.041 21.7342C170.893 21.7546 171.703 22.1119 172.293 22.728C172.402 22.8429 172.502 22.9655 172.593 23.0949C173.037 23.7289 173.238 24.5011 173.161 25.271C173.084 26.041 172.733 26.7576 172.172 27.2908H172.173Z" fill="#BDD0FB"/>
<path d="M161.108 31.2557C160.897 30.9556 160.7 30.6422 160.516 30.3156C160.152 29.6669 159.854 28.9828 159.628 28.274L159.598 28.1786C159.576 28.1058 159.568 28.0293 159.575 27.9535C159.582 27.8777 159.604 27.804 159.64 27.7366C159.675 27.6693 159.724 27.6096 159.782 27.5611C159.841 27.5125 159.909 27.4759 159.981 27.4535C160.128 27.4081 160.287 27.423 160.423 27.4949C160.559 27.5667 160.661 27.6897 160.706 27.8367C160.911 28.5008 161.187 29.1412 161.527 29.7471C161.546 29.7804 161.565 29.8136 161.584 29.8465C162.388 31.2521 163.532 32.4332 164.911 33.2815C165.662 33.7421 166.47 34.0997 167.316 34.3446L167.337 34.3508C167.358 34.3568 167.379 34.3631 167.401 34.3692C168.635 34.7195 169.926 34.8215 171.2 34.6693C172.474 34.5171 173.705 34.1138 174.822 33.4826C175.114 33.3187 175.398 33.14 175.672 32.9472C176.866 32.104 177.855 31.0034 178.567 29.7267C179.279 28.45 179.696 27.0298 179.786 25.5707C179.876 24.1116 179.637 22.6509 179.088 21.2963C178.538 19.9417 177.692 18.7277 176.611 17.744C175.529 16.7602 174.241 16.0317 172.841 15.6123C171.441 15.1928 169.965 15.093 168.521 15.3203C167.077 15.5475 165.703 16.0961 164.5 16.9254C163.296 17.7548 162.294 18.8438 161.567 20.1121C161.491 20.2456 161.365 20.3433 161.216 20.3838C161.068 20.4243 160.91 20.4042 160.776 20.328C160.643 20.2515 160.545 20.1252 160.504 19.9767C160.464 19.8283 160.484 19.6698 160.56 19.5362C161.373 18.1169 162.494 16.8982 163.841 15.9701C165.187 15.0419 166.725 14.428 168.34 14.1735C169.956 13.919 171.608 14.0305 173.174 14.4998C174.741 14.969 176.182 15.7841 177.392 16.8847C178.601 17.9854 179.548 19.3437 180.163 20.8594C180.778 22.375 181.045 24.0094 180.944 25.642C180.843 27.2746 180.377 28.8637 179.58 30.2921C178.784 31.7205 177.677 32.9517 176.341 33.8951C176.034 34.1106 175.717 34.3106 175.39 34.4941C173.03 35.8154 170.265 36.2157 167.627 35.6176C164.99 35.0196 162.667 33.4657 161.108 31.2557Z" fill="#BDD0FB"/>
<path d="M73.4753 19.3326V249.971C73.4753 251.494 74.0918 252.87 75.1406 253.718C75.9368 254.364 76.9419 254.775 78.0493 254.733L80.5745 254.64C83.1271 254.544 85.4294 252.207 85.4294 249.538V19.7233L73.4753 19.3326Z" fill="url(#paint0_linear_1_275)"/>
<path d="M68.6678 11.0586C68.6703 12.9132 69.1225 14.7397 69.9854 16.3812C70.8484 18.0228 72.0964 19.4306 73.6226 20.484C75.3304 21.669 77.3444 22.3344 79.4218 22.4001C80.4496 22.4331 81.4766 22.3119 82.4685 22.0406C83.1872 21.8441 83.882 21.5687 84.5403 21.2195C84.7057 21.1297 84.87 21.0399 85.0316 20.9399C88.0773 19.1053 90.1024 15.7149 90.1024 11.7752C90.1024 5.72686 85.3284 0.651048 79.4221 0.432734C73.4929 0.213592 68.6678 4.96855 68.6678 11.0586Z" fill="url(#paint1_linear_1_275)"/>
<path d="M73.5921 10.6594C73.5941 12.1013 73.9457 13.5213 74.6166 14.7976C75.2875 16.0738 76.2578 17.1684 77.4443 17.9874C78.772 18.9087 80.3379 19.426 81.953 19.4771C82.7521 19.5028 83.5506 19.4086 84.3218 19.1976C84.8805 19.0448 85.4207 18.8306 85.9325 18.5591C86.0611 18.4893 86.1889 18.4196 86.3145 18.3418C88.6823 16.9154 90.2567 14.2796 90.2567 11.2165C90.2567 6.51408 86.5455 2.56779 81.953 2.39808C77.3439 2.22801 73.5921 5.92456 73.5921 10.6594Z" fill="url(#paint2_linear_1_275)"/>
<path d="M159.882 27.5747L158.965 28.0493L141.574 17.3841L56.4087 29.9766L44.4965 31.3399L45.1995 33.564C45.2946 33.8034 58.8477 43.6816 58.8477 43.6816L48.2994 57.5291L48.8069 58.9533C48.8338 59.0338 48.888 59.1024 48.9601 59.1472C49.0323 59.192 49.1178 59.2103 49.2019 59.1987L60.1535 57.5018L145.367 44.2982C145.607 44.2605 145.827 44.1445 145.994 43.9682L159.698 29.6191C159.788 29.5238 159.857 29.4112 159.902 29.2881C159.946 29.165 159.965 29.0342 159.957 28.9035L159.882 27.5747Z" fill="url(#paint3_linear_1_275)"/>
<path d="M140.612 16.4476L44.496 31.3403C44.4759 31.3444 44.4573 31.3543 44.4427 31.3688C44.4281 31.3832 44.418 31.4016 44.4137 31.4217C44.4094 31.4418 44.411 31.4627 44.4184 31.4819C44.4258 31.5011 44.4386 31.5177 44.4553 31.5297L57.9994 41.4398C58.0881 41.5062 58.1487 41.6036 58.1691 41.7126C58.1895 41.8215 58.1683 41.9342 58.1096 42.0283L48.4233 57.3323C48.4124 57.349 48.4065 57.3685 48.4062 57.3885C48.406 57.4085 48.4114 57.4281 48.4219 57.4451C48.4324 57.4621 48.4474 57.4758 48.4654 57.4846C48.4833 57.4934 48.5034 57.4969 48.5232 57.4947L144.701 42.5923C144.976 42.5489 145.231 42.4178 145.426 42.2185L159.76 27.698C159.774 27.6832 159.785 27.6655 159.791 27.646C159.798 27.6266 159.8 27.606 159.797 27.5858C159.794 27.5655 159.787 27.5461 159.776 27.5289C159.765 27.5118 159.75 27.4973 159.733 27.4867L141.479 16.6191C141.219 16.4627 140.912 16.402 140.612 16.4476Z" fill="url(#paint4_linear_1_275)"/>
<path d="M151.521 117.48L150.546 117.718L136.576 103.629L53.2978 95.9983L42.1837 94.6094C42.1295 94.6027 42.0745 94.6079 42.0225 94.6247C41.9705 94.6415 41.9229 94.6695 41.8829 94.7067C41.8429 94.7439 41.8116 94.7895 41.7911 94.8401C41.7706 94.8908 41.7615 94.9453 41.7644 94.9999L41.8604 96.8177C41.8954 97.0658 52.4578 109.533 52.4578 109.533L39.3259 120.221L39.4784 121.685C39.4852 121.768 39.5206 121.845 39.5784 121.904C39.6362 121.963 39.7128 122 39.7949 122.008L50.5217 122.916L133.985 129.98C134.22 129.999 134.455 129.94 134.653 129.811L150.879 119.373C150.985 119.303 151.077 119.212 151.147 119.106C151.217 119 151.265 118.88 151.287 118.755L151.521 117.48Z" fill="#7D97F4"/>
<path d="M135.882 102.521L42.0189 94.5772C41.9761 94.5735 41.9332 94.5827 41.8956 94.6034C41.8581 94.6242 41.8275 94.6556 41.8077 94.6937C41.788 94.7318 41.78 94.7749 41.7848 94.8176C41.7895 94.8603 41.8068 94.9006 41.8345 94.9334L52.1697 107.214C52.2378 107.297 52.2725 107.403 52.267 107.511C52.2615 107.619 52.2163 107.721 52.14 107.797L39.4834 120.066C39.4697 120.08 39.4602 120.097 39.4559 120.115C39.4517 120.134 39.4528 120.154 39.4593 120.172C39.4658 120.19 39.4772 120.206 39.4924 120.218C39.5076 120.229 39.5258 120.237 39.5449 120.238L133.747 128.211C134.017 128.233 134.288 128.168 134.518 128.024L151.377 117.567C151.394 117.557 151.409 117.543 151.419 117.526C151.43 117.509 151.437 117.49 151.439 117.47C151.441 117.45 151.439 117.43 151.432 117.411C151.425 117.392 151.414 117.375 151.4 117.361L136.661 102.882C136.452 102.674 136.176 102.547 135.882 102.521Z" fill="#91B3FA"/>
<path opacity="0.56" d="M80.3789 105.342L132.697 109.432C132.891 109.447 133.036 109.617 133.02 109.811L132.832 112.221C132.817 112.415 132.647 112.56 132.454 112.545L80.1357 108.455C79.9419 108.44 79.797 108.27 79.8121 108.076L80.0005 105.666C80.0156 105.472 80.1851 105.327 80.3789 105.342Z" fill="white"/>
<path opacity="0.56" d="M80.0986 116.713L131.998 120.771C132.092 120.778 132.184 120.748 132.255 120.687C132.325 120.627 132.369 120.54 132.377 120.447L132.553 118.198C132.56 118.105 132.53 118.013 132.469 117.942C132.408 117.871 132.322 117.827 132.229 117.819L80.3293 113.762C80.2363 113.755 80.1442 113.785 80.0733 113.845C80.0024 113.906 79.9583 113.992 79.9507 114.085L79.775 116.335C79.768 116.428 79.7981 116.52 79.8588 116.591C79.9194 116.662 80.0056 116.706 80.0986 116.713Z" fill="white"/>
<path d="M1.52645e-05 70.4237L1.01141 70.8263L18.543 59.4738L109.784 66.4763L122.489 67.2022L121.97 69.1904C121.889 69.4271 108.339 79.8588 108.339 79.8588L120.66 92.5922L120.241 93.998C120.215 94.0805 120.161 94.1514 120.088 94.1989C120.016 94.2464 119.929 94.2676 119.843 94.259L108.104 93.2835L16.7613 85.6944C16.5073 85.6738 16.2658 85.5759 16.0691 85.4138L0.364235 72.3869C0.26358 72.3047 0.181732 72.2019 0.124238 72.0854C0.0667442 71.9689 0.0349405 71.8413 0.0309641 71.7115L1.52645e-05 70.4237Z" fill="url(#paint5_linear_1_275)"/>
<path d="M19.4819 58.5111L122.298 67.0535C122.335 67.0566 122.371 67.071 122.4 67.0947C122.429 67.1184 122.45 67.1503 122.461 67.1863C122.471 67.2223 122.471 67.2606 122.459 67.2963C122.448 67.3319 122.425 67.3632 122.396 67.3861L109.05 77.6418C109.007 77.6747 108.971 77.7158 108.944 77.7628C108.917 77.8099 108.9 77.8618 108.894 77.9155C108.888 77.9693 108.892 78.0237 108.907 78.0757C108.922 78.1276 108.948 78.176 108.982 78.2178L120.507 92.404C120.52 92.4197 120.527 92.4387 120.529 92.4589C120.531 92.479 120.527 92.4992 120.518 92.5171C120.509 92.535 120.494 92.5497 120.476 92.5594C120.459 92.5691 120.438 92.5734 120.418 92.5717L17.3235 84.006C17.0312 83.9823 16.7527 83.8719 16.5235 83.689L0.136915 70.5344C0.1212 70.5218 0.108752 70.5056 0.100563 70.4872C0.0923734 70.4688 0.0887099 70.4487 0.0898623 70.4286C0.0910224 70.4085 0.0969756 70.3889 0.107226 70.3716C0.117476 70.3542 0.131725 70.3396 0.148783 70.3288L18.5783 58.7289C18.848 58.5604 19.1651 58.484 19.4819 58.5111Z" fill="url(#paint6_linear_1_275)"/>
<path opacity="0.56" d="M21.1646 65.3151L72.2641 69.3099C72.458 69.325 72.6029 69.4945 72.5877 69.6884L72.3918 72.1954C72.3767 72.3894 72.2072 72.5343 72.0134 72.5191L20.9138 68.5244C20.7199 68.5092 20.575 68.3397 20.5902 68.1458L20.7861 65.6388C20.8012 65.4449 20.9707 65.2999 21.1646 65.3151Z" fill="white"/>
<path opacity="0.56" d="M21.0806 73.994L71.772 77.9568C71.9658 77.972 72.1107 78.1415 72.0956 78.3354L71.9126 80.6765C71.8975 80.8704 71.728 81.0153 71.5342 81.0002L20.8428 77.0373C20.6489 77.0222 20.504 76.8527 20.5192 76.6588L20.7021 74.3177C20.7172 74.1237 20.8867 73.9788 21.0806 73.994Z" fill="white"/>
<path d="M75.8707 40.3839C75.5478 38.3935 76.8992 36.5181 78.8892 36.1951C80.8791 35.8721 82.7541 37.2238 83.077 39.2143C83.3999 41.2047 82.0485 43.0801 80.0585 43.4031C78.0685 43.7261 76.1936 42.3744 75.8707 40.3839Z" fill="url(#paint7_linear_1_275)"/>
<path d="M79.2251 41.4589C77.988 41.4589 76.9852 40.4558 76.9852 39.2184C76.9852 37.981 77.988 36.9779 79.2251 36.9779C80.4622 36.9779 81.4651 37.981 81.4651 39.2184C81.4651 40.4558 80.4622 41.4589 79.2251 41.4589Z" fill="url(#paint8_linear_1_275)"/>
<path d="M76.6298 77.6923C76.1836 75.802 77.354 73.9079 79.2438 73.4616C81.1337 73.0154 83.0273 74.186 83.4735 76.0763C83.9196 77.9665 82.7493 79.8607 80.8595 80.3069C78.9696 80.7532 77.0759 79.5825 76.6298 77.6923Z" fill="url(#paint9_linear_1_275)"/>
<path d="M79.8117 78.4828C78.6202 78.4828 77.6542 77.5167 77.6542 76.3248C77.6542 75.133 78.6202 74.1669 79.8117 74.1669C81.0032 74.1669 81.9692 75.133 81.9692 76.3248C81.9692 77.5167 81.0032 78.4828 79.8117 78.4828Z" fill="url(#paint10_linear_1_275)"/>
<path d="M77.253 112.73C75.8266 111.303 75.8266 108.99 77.253 107.563C78.6793 106.137 80.9919 106.137 82.4182 107.563C83.8446 108.99 83.8446 111.303 82.4182 112.73C80.9919 114.157 78.6793 114.157 77.253 112.73Z" fill="url(#paint11_linear_1_275)"/>
<path d="M77.406 110.082C77.1213 108.878 77.8668 107.67 79.0712 107.385C80.2756 107.101 81.4827 107.846 81.7674 109.051C82.0521 110.256 81.3065 111.463 80.1022 111.748C78.8978 112.033 77.6907 111.287 77.406 110.082Z" fill="url(#paint12_linear_1_275)"/>
<path opacity="0.56" d="M89.94 31.0891L136.701 23.7087C136.893 23.6784 137.073 23.8096 137.104 24.0017L137.458 26.246C137.488 26.4381 137.357 26.6184 137.165 26.6487L90.4038 34.0291C90.2117 34.0594 90.0314 33.9282 90.0011 33.7361L89.647 31.4918C89.6167 31.2997 89.7479 31.1194 89.94 31.0891Z" fill="white"/>
<path opacity="0.56" d="M91.7289 38.9123L138.116 31.591C138.308 31.5607 138.488 31.6919 138.518 31.884L138.849 33.9763C138.879 34.1684 138.748 34.3487 138.556 34.3791L92.1688 41.7004C91.9767 41.7307 91.7964 41.5995 91.7661 41.4074L91.436 39.3151C91.4057 39.123 91.5368 38.9426 91.7289 38.9123Z" fill="white"/>
<path d="M157.86 138.022C186.807 137.267 218.827 145.044 218.827 145.044C226.451 187.121 223.097 234.713 221.799 249.128C221.679 250.44 221.132 251.677 220.242 252.649C219.352 253.62 218.168 254.274 216.872 254.509C201.914 257.258 186.14 255.59 178.204 254.382C176.697 254.152 175.296 253.469 174.186 252.423C173.077 251.377 172.312 250.018 171.993 248.527C166.749 224.114 151.769 170.253 151.769 170.253C137.607 168.632 125.915 164.661 116.268 159.356C123.507 150.799 126.854 139.968 128.292 133.57C138.558 136.654 148.932 138.255 157.86 138.022Z" fill="url(#paint13_linear_1_275)"/>
<path d="M71.938 96.1853C74.7489 92.7222 77.3891 92.8724 77.3891 92.8724C81.8212 110.832 105.274 126.655 128.292 133.57C126.854 139.968 123.506 150.799 116.268 159.356C77.9758 138.299 71.938 96.1853 71.938 96.1853Z" fill="url(#paint14_linear_1_275)"/>
<path d="M72.6363 97.0524C72.3476 98.0015 75.8075 99.4096 77.7996 95.5202C77.8527 93.6642 78.9047 85.7079 77.7823 84.2073C71.804 76.2161 60.2662 66.2372 60.2662 66.2372C58.3506 68.1643 59.9616 70.0238 59.9616 70.0238L65.5673 75.7544C64.4262 77.8637 63.027 79.6486 62.3876 82.1933C61.9034 84.1201 62.2303 86.1718 63.2177 87.9116C64.2088 89.658 65.5602 91.9275 66.8335 93.7016C69.2444 97.0594 72.6363 97.0524 72.6363 97.0524Z" fill="url(#paint15_linear_1_275)"/>
<path d="M68.0309 79.4833L73.1299 83.7239L74.7587 87.9788L70.2967 93.0258C70.2967 93.0258 68.6995 84.5677 67.5551 82.7447C66.4107 80.9216 66.9867 80.0299 68.0309 79.4833Z" fill="url(#paint16_linear_1_275)"/>
<path d="M207.99 173.19L218.827 145.045C218.827 145.045 246.044 163.164 250.713 186.423C245.607 186.848 236.322 188.266 227.265 192.949C225.161 181.966 207.99 173.19 207.99 173.19Z" fill="url(#paint17_linear_1_275)"/>
<path d="M184.61 199.8C184.61 199.8 215.135 216.672 225.24 201.92C227.337 198.856 227.817 195.828 227.266 192.949C236.322 188.266 245.607 186.848 250.713 186.423C252.121 193.435 251.483 200.913 247.429 208.503C229.797 241.507 180.664 207.325 180.664 207.325L184.61 199.8Z" fill="url(#paint18_linear_1_275)"/>
<path d="M186.96 114.234L196.426 140.792C196.503 141.004 196.502 141.237 196.424 141.45C196.346 141.662 196.196 141.84 195.999 141.952C193.502 143.364 184.493 147.465 173.525 140.655C172.959 140.308 172.477 139.841 172.112 139.286C171.747 138.732 171.508 138.103 171.413 137.446L168.21 114.413L186.96 114.234Z" fill="url(#paint19_linear_1_275)"/>
<path d="M166.682 89.75C166.682 89.75 156.748 108.892 158.118 116.573C159.488 124.254 172.019 123.582 182.907 117.229L190.36 96.5913L166.682 89.75Z" fill="url(#paint20_linear_1_275)"/>
<path d="M182.326 107.135C182.221 107.09 182.127 107.023 182.051 106.938C181.974 106.853 181.917 106.753 181.884 106.644C181.85 106.535 181.841 106.42 181.856 106.307C181.871 106.193 181.911 106.085 181.973 105.989C182.772 104.743 184.266 102.202 184.73 99.9855C184.73 99.9855 186.537 98.8032 180.076 97.3213C173.615 95.8395 163.978 93.5358 161.905 88.0662C159.884 82.7336 164.932 69.2267 173.293 79.8702C173.366 79.9653 173.461 80.0422 173.569 80.095C173.677 80.1478 173.795 80.1751 173.915 80.1748C174.036 80.1745 174.154 80.1465 174.262 80.0932C174.369 80.0398 174.463 79.9624 174.536 79.8669C175.873 78.0917 179.398 74.3992 184.361 76.5699C189.005 78.6013 189.558 81.9858 189.511 83.6949C189.507 83.8123 189.53 83.9291 189.578 84.0364C189.625 84.1438 189.697 84.239 189.786 84.315C189.876 84.3909 189.981 84.4457 190.095 84.4751C190.209 84.5046 190.328 84.508 190.443 84.4851C192.777 84.0165 198.384 83.58 201.058 89.3122C203.26 94.0335 201.883 96.7314 200.619 98.0562C200.525 98.1534 200.458 98.2732 200.424 98.404C200.39 98.5348 200.391 98.6722 200.426 98.8027C200.461 98.9332 200.529 99.0524 200.624 99.1487C200.718 99.2451 200.837 99.3152 200.966 99.3523C202.508 99.8083 204.504 101.093 204.34 104.696C204.113 109.676 198.544 109.291 196.958 109.079C196.83 109.061 196.7 109.075 196.579 109.119C196.458 109.163 196.349 109.236 196.263 109.332C194.919 110.849 188.859 117.292 182.243 118.124C182.11 118.14 181.976 118.121 181.853 118.071C181.73 118.02 181.621 117.94 181.538 117.836C181.454 117.733 181.397 117.61 181.374 117.478C181.35 117.347 181.36 117.212 181.402 117.086L184.19 108.724C184.252 108.536 184.242 108.332 184.161 108.152C184.081 107.972 183.935 107.828 183.754 107.75L182.326 107.135Z" fill="url(#paint21_linear_1_275)"/>
<path d="M181.185 108.329C181.185 108.329 188.34 103.317 188.906 107.475C189.472 111.632 182.478 113.565 178.99 112.047L181.185 108.329Z" fill="url(#paint22_linear_1_275)"/>
<path d="M190.849 226.465L174.221 168.383C174.129 168.06 173.945 167.773 173.69 167.556C173.435 167.339 173.121 167.202 172.789 167.163C169.776 166.811 161.046 165.824 150.967 164.972C138.826 163.944 124.727 163.112 116.302 163.82C116.025 163.842 115.759 163.932 115.525 164.081C115.291 164.23 115.097 164.434 114.96 164.675C114.823 164.916 114.747 165.187 114.739 165.465C114.731 165.742 114.79 166.017 114.913 166.266C119.704 175.961 139.411 215.399 149.28 228.318C149.441 228.529 149.648 228.7 149.886 228.817C150.124 228.934 150.386 228.994 150.651 228.991L189.231 228.632C189.493 228.63 189.75 228.567 189.984 228.448C190.217 228.33 190.42 228.159 190.577 227.949C190.733 227.74 190.839 227.497 190.886 227.239C190.934 226.982 190.921 226.717 190.849 226.465Z" fill="url(#paint23_linear_1_275)"/>
<path d="M186.831 212.432C186.831 212.432 189.147 202.906 188.213 199.526C187.278 196.146 185.468 191.8 179.434 192.766C173.4 193.732 166.282 196.274 166.282 196.274C166.282 196.274 166.642 200.677 171.228 199.256L168.384 201.457C168.384 201.457 168.79 204.982 172.664 203.099L170.019 206.018C170.019 206.018 171.683 208.913 174.533 207.056C177.382 205.199 178.749 213.579 186.831 212.432Z" fill="url(#paint24_linear_1_275)"/>
<path d="M152.075 182.31C152.075 183.276 151.789 184.22 151.253 185.023C150.716 185.826 149.954 186.451 149.062 186.821C148.17 187.19 147.189 187.287 146.242 187.099C145.295 186.91 144.425 186.445 143.743 185.763C143.06 185.08 142.595 184.21 142.407 183.263C142.219 182.316 142.315 181.334 142.685 180.442C143.054 179.55 143.68 178.787 144.482 178.251C145.285 177.714 146.229 177.428 147.194 177.428C147.835 177.428 148.47 177.554 149.062 177.8C149.654 178.045 150.192 178.405 150.646 178.858C151.099 179.311 151.458 179.85 151.704 180.442C151.949 181.034 152.075 181.669 152.075 182.31Z" fill="#91B3FA"/>
<path d="M172.339 185.529L168.954 174.042C168.757 173.356 168.378 172.737 167.857 172.25C167.336 171.763 166.692 171.427 165.995 171.277C155.384 169.063 126.341 168.593 126.049 168.589L126.068 167.291C127.266 167.309 155.528 167.768 166.26 170.007C167.187 170.205 168.043 170.65 168.736 171.296C169.43 171.942 169.936 172.764 170.199 173.674L173.584 185.162L172.339 185.529Z" fill="#BDD0FB"/>
<path d="M74.7368 254.378C74.9058 254.349 75.0674 254.288 75.2122 254.196C75.3569 254.104 75.4817 253.984 75.5793 253.843C78.4638 249.684 99.3628 217.187 69.266 189.056C40.6947 162.351 27.9624 157.087 25.7748 140.929C25.5193 139.043 22.9461 138.67 22.1587 140.404C16.275 153.36 7.42415 183.437 40.4882 201.935C76.9613 222.34 74.7839 246.056 73.2681 252.825C73.2214 253.031 73.2261 253.245 73.2819 253.449C73.3377 253.653 73.4429 253.84 73.5881 253.993C73.7332 254.147 73.914 254.262 74.1143 254.329C74.3147 254.396 74.5285 254.413 74.7368 254.378V254.378Z" fill="#91B3FA"/>
<path d="M70.3178 255.124C70.7123 255.058 71.075 254.867 71.3517 254.578C71.6284 254.289 71.8043 253.919 71.8531 253.522C72.5306 247.966 73.9677 227.238 58.5753 222.246C41.6306 216.751 28.6052 232.788 15.9008 220.968C15.2323 220.346 14.1608 220.941 14.3441 221.836C15.6449 228.181 20.9987 242.803 42.8133 245.082C66.1625 247.521 68.8639 250.105 68.5003 253.429C68.4761 253.669 68.5075 253.911 68.5922 254.136C68.6769 254.361 68.8126 254.564 68.9885 254.728C69.1645 254.892 69.3761 255.013 69.6067 255.082C69.8373 255.151 70.0807 255.165 70.3178 255.124V255.124Z" fill="#91B3FA"/>
<path opacity="0.47" d="M27.296 157.376C27.6454 158.521 28.0803 159.638 28.5969 160.717C29.103 161.797 29.6613 162.852 30.2624 163.883C30.8634 164.914 31.504 165.923 32.1991 166.894C32.89 167.867 33.6088 168.823 34.3755 169.739C37.4229 173.424 41.0371 176.629 44.9777 179.332C46.9531 180.67 48.9998 181.899 51.1087 183.015C53.1614 184.124 55.1424 185.361 57.0398 186.718C60.8447 189.434 64.318 192.588 67.3882 196.114C70.46 199.637 73.0749 203.534 75.1711 207.712C79.4197 216.111 81.0955 225.578 79.9883 234.926C79.4647 239.586 78.2495 244.159 76.5874 248.559C76.5648 248.619 76.5666 248.685 76.5924 248.744C76.6181 248.802 76.6658 248.848 76.7251 248.872C76.7844 248.896 76.8507 248.895 76.9096 248.871C76.9685 248.846 77.0155 248.799 77.0403 248.74C78.8614 244.363 80.1836 239.754 80.8216 235.031C81.4885 230.296 81.431 225.487 80.6512 220.769C79.8699 216.044 78.4078 211.457 76.3104 207.151C74.223 202.846 71.5229 198.852 68.4082 195.231C65.2817 191.61 61.7414 188.369 57.8597 185.574C55.9197 184.173 53.8937 182.897 51.7935 181.751L50.2454 180.906C49.7294 180.632 49.2272 180.335 48.7251 180.038L47.9708 179.594L47.2309 179.126L46.4911 178.659L45.7654 178.17C43.827 176.871 41.9702 175.454 40.2057 173.927C38.4372 172.403 36.7759 170.758 35.2337 169.005C33.6826 167.256 32.2614 165.396 30.9815 163.439C29.7104 161.482 28.5639 159.41 27.7228 157.246L27.7174 157.231C27.6967 157.177 27.6559 157.134 27.6037 157.109C27.5514 157.085 27.4917 157.082 27.4372 157.1C27.3827 157.119 27.3375 157.158 27.3113 157.21C27.285 157.261 27.2796 157.321 27.2963 157.376L27.296 157.376Z" fill="white"/>
<path opacity="0.47" d="M71.0191 251.339C70.9894 251.15 70.9791 250.959 70.9884 250.767L70.9855 250.199C70.9809 249.82 70.9717 249.441 70.9579 249.062C70.9294 248.305 70.8852 247.549 70.8251 246.793C70.7032 245.282 70.5195 243.776 70.2629 242.281C69.7424 239.296 68.9541 236.332 67.6476 233.571C67.0013 232.183 66.1913 230.877 65.235 229.682C64.2717 228.477 63.1104 227.445 61.8009 226.63C60.4784 225.826 59.0154 225.279 57.4894 225.02C56.7307 224.886 55.9621 224.816 55.1917 224.811C54.4237 224.801 53.6559 224.843 52.8937 224.938C52.1283 225.032 51.39 225.166 50.6423 225.292L48.4077 225.687C46.9196 225.958 45.4341 226.243 43.9514 226.541C40.9854 227.129 38.0317 227.774 35.0672 228.32C33.5848 228.589 32.0979 228.831 30.6055 228.981C29.1147 229.127 27.6128 229.18 26.1364 229.009C24.6585 228.859 23.2241 228.423 21.913 227.724C20.6052 227.024 19.4494 226.056 18.4223 224.971C18.3861 224.934 18.3365 224.912 18.2843 224.91C18.232 224.909 18.1813 224.928 18.1431 224.964C18.1049 224.999 18.0823 225.049 18.0802 225.101C18.0781 225.153 18.0967 225.204 18.132 225.243C19.1672 226.361 20.3452 227.375 21.6978 228.119C23.0537 228.861 24.5411 229.333 26.0771 229.507C27.6052 229.689 29.1417 229.636 30.6557 229.493C32.1708 229.344 33.6701 229.105 35.1609 228.838C38.1417 228.298 41.0952 227.662 44.059 227.082C47.0179 226.503 49.9983 225.945 52.9641 225.504C53.701 225.407 54.4438 225.36 55.1871 225.365C55.9282 225.364 56.6681 225.426 57.3988 225.55C58.8621 225.788 60.2671 226.301 61.5392 227.063C62.8067 227.839 63.9327 228.826 64.8689 229.981C65.8101 231.142 66.61 232.411 67.2517 233.761C68.5615 236.458 69.3732 239.384 69.9187 242.341C70.1879 243.822 70.3851 245.317 70.5212 246.818C70.5886 247.569 70.64 248.32 70.6756 249.073C70.6928 249.45 70.7057 249.826 70.7144 250.203L70.7231 250.767C70.7339 250.955 70.7204 251.144 70.6829 251.329C70.6773 251.351 70.676 251.374 70.6793 251.396C70.6825 251.419 70.6901 251.44 70.7017 251.46C70.7133 251.479 70.7286 251.496 70.7467 251.51C70.7649 251.523 70.7855 251.533 70.8075 251.539C70.8295 251.545 70.8524 251.546 70.8748 251.543C70.8973 251.539 70.9189 251.532 70.9384 251.52C70.9579 251.509 70.9749 251.493 70.9885 251.475C71.0021 251.457 71.012 251.436 71.0176 251.414C71.0235 251.39 71.024 251.364 71.0191 251.339Z" fill="white"/>
<defs>
<linearGradient id="paint0_linear_1_275" x1="85.4294" y1="137.034" x2="73.4753" y2="137.034" gradientUnits="userSpaceOnUse">
<stop stop-color="#FE7062"/>
<stop offset="1" stop-color="#FF928E"/>
</linearGradient>
<linearGradient id="paint1_linear_1_275" x1="349.311" y1="-9.75125" x2="376.694" y2="33.8595" gradientUnits="userSpaceOnUse">
<stop stop-color="#E1473D"/>
<stop offset="1" stop-color="#E9605A"/>
</linearGradient>
<linearGradient id="paint2_linear_1_275" x1="349.573" y1="-5.51965" x2="370.88" y2="28.3856" gradientUnits="userSpaceOnUse">
<stop stop-color="#FE7062"/>
<stop offset="1" stop-color="#FF928E"/>
</linearGradient>
<linearGradient id="paint3_linear_1_275" x1="61.9314" y1="-25.5629" x2="61.9314" y2="54.1839" gradientUnits="userSpaceOnUse">
<stop stop-color="#E1473D"/>
<stop offset="1" stop-color="#E9605A"/>
</linearGradient>
<linearGradient id="paint4_linear_1_275" x1="360.687" y1="-3.97529" x2="361.359" y2="63.0853" gradientUnits="userSpaceOnUse">
<stop stop-color="#FE7062"/>
<stop offset="1" stop-color="#FF928E"/>
</linearGradient>
<linearGradient id="paint5_linear_1_275" x1="62.5917" y1="-81.6223" x2="62.5423" y2="-12.0479" gradientUnits="userSpaceOnUse">
<stop stop-color="#4F52FF"/>
<stop offset="1" stop-color="#4042E2"/>
</linearGradient>
<linearGradient id="paint6_linear_1_275" x1="-1.01175" y1="20.9307" x2="-10.8743" y2="-77.5109" gradientUnits="userSpaceOnUse">
<stop stop-color="#4F52FF"/>
<stop offset="1" stop-color="#4042E2"/>
</linearGradient>
<linearGradient id="paint7_linear_1_275" x1="89.6388" y1="35.8041" x2="43.0176" y2="54.1196" gradientUnits="userSpaceOnUse">
<stop stop-color="#E1473D"/>
<stop offset="1" stop-color="#E9605A"/>
</linearGradient>
<linearGradient id="paint8_linear_1_275" x1="79.4088" y1="30.8614" x2="79.1712" y2="41.6336" gradientUnits="userSpaceOnUse">
<stop stop-color="#E1473D"/>
<stop offset="1" stop-color="#E9605A"/>
</linearGradient>
<linearGradient id="paint9_linear_1_275" x1="89.545" y1="72.3517" x2="46.0033" y2="93.1322" gradientUnits="userSpaceOnUse">
<stop stop-color="#E1473D"/>
<stop offset="1" stop-color="#E9605A"/>
</linearGradient>
<linearGradient id="paint10_linear_1_275" x1="79.9886" y1="68.2756" x2="79.7598" y2="78.6511" gradientUnits="userSpaceOnUse">
<stop stop-color="#E1473D"/>
<stop offset="1" stop-color="#E9605A"/>
</linearGradient>
<linearGradient id="paint11_linear_1_275" x1="85.7499" y1="100.956" x2="58.6178" y2="143.103" gradientUnits="userSpaceOnUse">
<stop stop-color="#E1473D"/>
<stop offset="1" stop-color="#E9605A"/>
</linearGradient>
<linearGradient id="paint12_linear_1_275" x1="87.763" y1="107.822" x2="77.2233" y2="110.069" gradientUnits="userSpaceOnUse">
<stop stop-color="#E1473D"/>
<stop offset="1" stop-color="#E9605A"/>
</linearGradient>
<linearGradient id="paint13_linear_1_275" x1="254.052" y1="134.06" x2="338.142" y2="383.437" gradientUnits="userSpaceOnUse">
<stop stop-color="#4F52FF"/>
<stop offset="1" stop-color="#4042E2"/>
</linearGradient>
<linearGradient id="paint14_linear_1_275" x1="-878.468" y1="120.529" x2="-934.428" y2="120.529" gradientUnits="userSpaceOnUse">
<stop stop-color="#FEBBBA"/>
<stop offset="1" stop-color="#FF928E"/>
</linearGradient>
<linearGradient id="paint15_linear_1_275" x1="550.818" y1="111.579" x2="486.271" y2="163.624" gradientUnits="userSpaceOnUse">
<stop stop-color="#FEBBBA"/>
<stop offset="1" stop-color="#FF928E"/>
</linearGradient>
<linearGradient id="paint16_linear_1_275" x1="-934.172" y1="83.1805" x2="-956.381" y2="71.7542" gradientUnits="userSpaceOnUse">
<stop stop-color="#FEBBBA"/>
<stop offset="1" stop-color="#FF928E"/>
</linearGradient>
<linearGradient id="paint17_linear_1_275" x1="203.504" y1="147.2" x2="283.488" y2="392.097" gradientUnits="userSpaceOnUse">
<stop stop-color="#4F52FF"/>
<stop offset="1" stop-color="#4042E2"/>
</linearGradient>
<linearGradient id="paint18_linear_1_275" x1="-755.918" y1="200.347" x2="-826.788" y2="200.347" gradientUnits="userSpaceOnUse">
<stop stop-color="#FEBBBA"/>
<stop offset="1" stop-color="#FF928E"/>
</linearGradient>
<linearGradient id="paint19_linear_1_275" x1="-810.37" y1="124.605" x2="-838.388" y2="124.605" gradientUnits="userSpaceOnUse">
<stop stop-color="#FEBBBA"/>
<stop offset="1" stop-color="#FF928E"/>
</linearGradient>
<linearGradient id="paint20_linear_1_275" x1="-55.505" y1="569.021" x2="-45.0241" y2="534.508" gradientUnits="userSpaceOnUse">
<stop stop-color="#FEBBBA"/>
<stop offset="1" stop-color="#FF928E"/>
</linearGradient>
<linearGradient id="paint21_linear_1_275" x1="-46.0816" y1="508.848" x2="-54.5736" y2="558.856" gradientUnits="userSpaceOnUse">
<stop stop-color="#09005D"/>
<stop offset="1" stop-color="#1A0F91"/>
</linearGradient>
<linearGradient id="paint22_linear_1_275" x1="-44.8079" y1="568.865" x2="-40.3911" y2="537.093" gradientUnits="userSpaceOnUse">
<stop stop-color="#FEBBBA"/>
<stop offset="1" stop-color="#FF928E"/>
</linearGradient>
<linearGradient id="paint23_linear_1_275" x1="-818.8" y1="159.5" x2="-847.946" y2="324.19" gradientUnits="userSpaceOnUse">
<stop stop-color="#09005D"/>
<stop offset="1" stop-color="#1A0F91"/>
</linearGradient>
<linearGradient id="paint24_linear_1_275" x1="-792.027" y1="202.585" x2="-814.18" y2="202.585" gradientUnits="userSpaceOnUse">
<stop stop-color="#FEBBBA"/>
<stop offset="1" stop-color="#FF928E"/>
</linearGradient>
</defs>
</svg>
