<svg width="47" height="47" viewBox="0 0 47 47" fill="none" xmlns="http://www.w3.org/2000/svg">
<path d="M23.5 25.7031C24.7168 25.7031 25.7031 24.7168 25.7031 23.5C25.7031 22.2832 24.7168 21.2969 23.5 21.2969C22.2832 21.2969 21.2969 22.2832 21.2969 23.5C21.2969 24.7168 22.2832 25.7031 23.5 25.7031Z" fill="white"/>
<path d="M23.5 4.40625C12.9718 4.40625 4.40625 12.9718 4.40625 23.5C4.40625 34.0282 12.9718 42.5938 23.5 42.5938C34.0282 42.5938 42.5938 34.0282 42.5938 23.5C42.5938 12.9718 34.0282 4.40625 23.5 4.40625ZM27.9062 27.9062L13.2188 33.7812L19.0938 19.0938L33.7812 13.2188L27.9062 27.9062Z" fill="white"/>
</svg>
